<?xml version="1.0" encoding="UTF-8"?>
<svg id="Layer_3" data-name="Layer 3" xmlns="http://www.w3.org/2000/svg" xmlns:xlink="http://www.w3.org/1999/xlink" viewBox="0 0 350.83 253.4">
  <defs>
    <style>
      .cls-1 {
        fill: none;
      }

      .cls-1, .cls-2, .cls-3, .cls-4, .cls-5 {
        stroke: #231f20;
        stroke-miterlimit: 10;
        stroke-width: .25px;
      }

      .cls-2 {
        fill: url(#linear-gradient);
      }

      .cls-3 {
        fill: #0a1214;
      }

      .cls-4 {
        fill: url(#linear-gradient-2);
      }
    </style>
    <linearGradient id="linear-gradient" x1="238.69" y1="40.45" x2="270.71" y2="-1.85" gradientUnits="userSpaceOnUse">
      <stop offset="0" stop-color="#031a21"/>
      <stop offset=".97" stop-color="#0c3849"/>
    </linearGradient>
    <linearGradient id="linear-gradient-2" x1="182.97" y1="20.35" x2="236.01" y2="20.35" gradientUnits="userSpaceOnUse">
      <stop offset="0" stop-color="#000006"/>
      <stop offset="1" stop-color="#002c3c"/>
    </linearGradient>
  </defs>
  <g>
    <g>
      <path class="cls-2" d="M281.15,19.4c0,10.65-11.88,19.28-26.53,19.28-9.27,0-17.43-3.46-22.16-8.7,2.13-2.67,3.4-5.75,3.53-9.03,1.04,5.85,7.91,10.36,16.24,10.36,9.04,0,16.37-5.33,16.37-11.91s-7.33-11.9-16.37-11.9c-3.27,0-6.31.69-8.86,1.89,0,0-.01.01-.04.02-.01,0-.03.02-.05.03s-.04.03-.07.04c-1.17.55-2.23,1.22-3.16,1.97-1.48.97-3.29,2.21-5.07,3.6-2.71,2.11-5.34,4.54-6.65,6.81-.05-.21-.09-.42-.11-.64-.08-.6-.12-1.2-.12-1.82,0-.22.01-.44.02-.65.14-3.27,1.41-6.32,3.53-8.98,4.58-5.76,13.16-9.64,22.97-9.64,14.65,0,26.53,8.63,26.53,19.27Z"/>
      <path class="cls-1" d="M243.21,9.47c-.42.25-1.61.96-3.16,1.97.93-.75,1.99-1.42,3.16-1.97Z"/>
      <path class="cls-1" d="M268.6,19.4c0,6.58-7.33,11.91-16.37,11.91-8.33,0-15.2-4.51-16.24-10.36.02-.2.02-.4.02-.6,0-.6-.04-1.19-.12-1.78-.02-.23-.06-.46-.11-.68-.16-.97-.43-1.92-.8-2.84,1.78-1.39,3.59-2.63,5.07-3.6,1.55-1.01,2.74-1.72,3.16-1.97.03,0,.05-.03.07-.04s.04-.02.05-.03c.03-.01.04-.02.04-.02,2.55-1.2,5.59-1.89,8.86-1.89,9.04,0,16.37,5.33,16.37,11.9Z"/>
      <path class="cls-1" d="M243.21,9.47c-.42.25-1.61.96-3.16,1.97.93-.75,1.99-1.42,3.16-1.97Z"/>
    </g>
    <g>
      <path class="cls-4" d="M236.01,20.34c0,.2,0,.4-.02.6-.13,3.28-1.4,6.36-3.53,9.03-4.58,5.77-13.15,9.65-22.97,9.65-14.65,0-26.52-8.64-26.52-19.28S194.84,1.07,209.49,1.07c9.27,0,17.43,3.46,22.16,8.7-2.12,2.66-3.39,5.71-3.53,8.98-1.07-5.82-7.94-10.31-16.23-10.31-9.05,0-16.38,5.33-16.38,11.91s7.33,11.9,16.38,11.9c3.27,0,6.31-.69,8.86-1.89,0,0,.02-.01.06-.03.04-.02.09-.05.16-.09,1.16-.55,2.21-1.22,3.13-1.96.01,0,.01-.01.02-.02,1.47-.95,3.25-2.18,5-3.56,2.71-2.1,5.35-4.53,6.66-6.81.05.22.09.45.11.68.08.59.12,1.18.12,1.78Z"/>
      <path class="cls-1" d="M224.1,28.28c-.92.74-1.97,1.41-3.13,1.96.46-.28,1.63-.98,3.13-1.96Z"/>
      <path class="cls-3" d="M235.78,17.89c-1.31,2.28-3.95,4.71-6.66,6.81-.37-.92-.64-1.87-.79-2.84,1.31-2.27,3.94-4.7,6.65-6.81.37.92.64,1.87.8,2.84Z"/>
      <path class="cls-1" d="M229.12,24.7c-1.75,1.38-3.53,2.61-5,3.56-.01.01-.01.02-.02.02-1.5.98-2.67,1.68-3.13,1.96-.07.04-.12.07-.16.09-.04.02-.06.03-.06.03-2.55,1.2-5.59,1.89-8.86,1.89-9.05,0-16.38-5.33-16.38-11.9s7.33-11.91,16.38-11.91c8.29,0,15.16,4.49,16.23,10.31-.01.21-.02.43-.02.65,0,.62.04,1.22.12,1.82.02.22.06.43.11.64.15.97.42,1.92.79,2.84Z"/>
      <path class="cls-1" d="M224.1,28.28c-.92.74-1.97,1.41-3.13,1.96.46-.28,1.63-.98,3.13-1.96Z"/>
    </g>
  </g>
  <g>
    <path class="cls-5" d="M219.12,51.19c2,0,1,3,3,2,1,3-2,4-4,3v-2c0,1,0,2,1,2h2v-2c-2-1-4-3-3-5h4v2c0-1-1-2-1-2h-2v2h0Z"/>
    <path class="cls-5" d="M230.12,49.19c-1,1-2,3-3,4,2,1-2,3,1,3h-3c3,0-1-2,1-3-1-1-2-3-3-4h3-1c0,2,1,2,2,3,0-1,1-2,2-3h-1,2Z"/>
    <path class="cls-5" d="M239.12,49.19c-3,2,0,5-1,8-2-3-4-5-6-7,1,2-2,4,1,6h-2c2-2,1-4,1-6l-1-1c4-1,4,3,7,5,0-2,1-4-1-5h2Z"/>
    <path class="cls-5" d="M245.12,49.19c2,0,2,1,2,2-2,0-1-1-2-2-2,0-4,0-4,3,0,1,1,3,2,4s3,0,4-2c0,1-1,2-1,2-2,0-4,1-6-2v-3c1-2,3-2,5-2h0Z"/>
  </g>
</svg>