<?xml version="1.0" encoding="UTF-8"?>
<svg id="Layer_3" data-name="Layer 3" xmlns="http://www.w3.org/2000/svg" viewBox="0 0 350.83 253.4">
  <defs>
    <style>
      .cls-1 {
        fill: #f4f4f5;
      }

      .cls-1, .cls-2, .cls-3 {
        stroke: #231f20;
        stroke-miterlimit: 10;
        stroke-width: .1px;
      }

      .cls-2 {
        fill: none;
      }

      .cls-3 {
        fill: #c4c4c4;
      }
    </style>
  </defs>
  <g>
    <g>
      <path class="cls-1" d="M345.6,60.41c0,10.65-11.88,19.28-26.53,19.28-9.27,0-17.43-3.46-22.16-8.7,2.13-2.67,3.4-5.75,3.53-9.03,1.04,5.85,7.91,10.36,16.24,10.36,9.04,0,16.37-5.33,16.37-11.91s-7.33-11.9-16.37-11.9c-3.27,0-6.31.69-8.86,1.89,0,0-.01.01-.04.02-.01.01-.03.02-.05.03-.02,0-.04.03-.07.04-1.17.55-2.23,1.22-3.16,1.97-1.48.97-3.29,2.21-5.07,3.6-2.71,2.11-5.34,4.54-6.65,6.81-.05-.21-.09-.42-.11-.64-.08-.6-.12-1.2-.12-1.82,0-.22.01-.44.02-.65.14-3.27,1.41-6.32,3.53-8.98,4.58-5.76,13.16-9.64,22.97-9.64,14.65,0,26.53,8.63,26.53,19.27Z"/>
      <path class="cls-2" d="M307.66,50.49c-.42.25-1.61.96-3.16,1.97.93-.75,1.99-1.42,3.16-1.97Z"/>
      <path class="cls-2" d="M333.05,60.41c0,6.58-7.33,11.91-16.37,11.91-8.33,0-15.2-4.51-16.24-10.36.02-.2.02-.4.02-.6,0-.6-.04-1.19-.12-1.78-.02-.23-.06-.46-.11-.68-.16-.97-.43-1.92-.8-2.84,1.78-1.39,3.59-2.63,5.07-3.6,1.55-1.01,2.74-1.72,3.16-1.97.03-.01.05-.03.07-.04.02-.01.04-.02.05-.03.03-.01.04-.02.04-.02,2.55-1.2,5.59-1.89,8.86-1.89,9.04,0,16.37,5.33,16.37,11.9Z"/>
      <path class="cls-2" d="M307.66,50.49c-.42.25-1.61.96-3.16,1.97.93-.75,1.99-1.42,3.16-1.97Z"/>
    </g>
    <g>
      <path class="cls-1" d="M300.46,61.36c0,.2,0,.4-.02.6-.13,3.28-1.4,6.36-3.53,9.03-4.58,5.77-13.15,9.65-22.97,9.65-14.65,0-26.52-8.64-26.52-19.28s11.87-19.28,26.52-19.28c9.27,0,17.43,3.46,22.16,8.7-2.12,2.66-3.39,5.71-3.53,8.98-1.07-5.82-7.94-10.31-16.23-10.31-9.05,0-16.38,5.33-16.38,11.91s7.33,11.9,16.38,11.9c3.27,0,6.31-.69,8.86-1.89,0,0,.02-.01.06-.03.04-.02.09-.05.16-.09,1.16-.55,2.21-1.22,3.13-1.96.01,0,.01-.01.02-.02,1.47-.95,3.25-2.18,5-3.56,2.71-2.1,5.35-4.53,6.66-6.81.05.22.09.45.11.68.08.59.12,1.18.12,1.78Z"/>
      <path class="cls-2" d="M288.55,69.29c-.92.74-1.97,1.41-3.13,1.96.46-.28,1.63-.98,3.13-1.96Z"/>
      <path class="cls-3" d="M300.23,58.9c-1.31,2.28-3.95,4.71-6.66,6.81-.37-.92-.64-1.87-.79-2.84,1.31-2.27,3.94-4.7,6.65-6.81.37.92.64,1.87.8,2.84Z"/>
      <path class="cls-2" d="M293.57,65.71c-1.75,1.38-3.53,2.61-5,3.56-.01.01-.01.02-.02.02-1.5.98-2.67,1.68-3.13,1.96-.07.04-.12.07-.16.09-.04.02-.06.03-.06.03-2.55,1.2-5.59,1.89-8.86,1.89-9.05,0-16.38-5.33-16.38-11.9s7.33-11.91,16.38-11.91c8.29,0,15.16,4.49,16.23,10.31-.01.21-.02.43-.02.65,0,.62.04,1.22.12,1.82.02.22.06.43.11.64.15.97.42,1.92.79,2.84Z"/>
      <path class="cls-2" d="M288.55,69.29c-.92.74-1.97,1.41-3.13,1.96.46-.28,1.63-.98,3.13-1.96Z"/>
    </g>
  </g>
  <g>
    <path class="cls-1" d="M283.12,91.19c2,0,3,2,4,3l-3,3c0-1-1-1-2-1v-2c1,0,1,1,1,2,1,0,3,0,3-1,0-2-4-2-4-4,0-1,1-1,1-2h3v2c-1-1-1-2-2-2s-1,1-1,2h0Z"/>
    <path class="cls-1" d="M295.12,89.19c-2,1-5,5-2,7h-4c2-2,1-7-2-7,3-1,3,2,5,3,1,0,1-2,1-3h-1,3Z"/>
    <path class="cls-1" d="M304.12,89.19c-1,0-2,0-2,1v7c-2-2-3-5-5-7,1,2-2,4,1,6h-3c3-2,1-5,1-7h-1c3-1,4,3,7,5-1-2,2-4-1-5h3Z"/>
    <path class="cls-1" d="M310.12,89.19c2,0,1,1,1,2-1-1-2-2-3-2s-2,1-2,1c0,2-1,4,1,6h3s1-1,1-2v2c-2,3-7,0-7-3s2-5,6-4h0Z"/>
  </g>
</svg>