<svg width="17" height="17" viewBox="0 0 17 17" fill="none" xmlns="http://www.w3.org/2000/svg">
<path d="M4.97533 1.63622C5.50752 1.81581 6.01364 2.06494 6.48054 2.37714C7.14037 2.20825 7.81891 2.12353 8.5 2.12497C9.20337 2.12497 9.88196 2.21281 10.518 2.37643C10.9848 2.06453 11.4906 1.81564 12.0225 1.63622C12.5162 1.46835 13.2196 1.19635 13.6375 1.65889C13.9209 1.97339 13.9917 2.50039 14.042 2.90272C14.0987 3.35181 14.1121 3.93689 13.9634 4.51772C14.5322 5.25226 14.875 6.12847 14.875 7.08331C14.875 8.52972 14.0916 9.7856 12.932 10.6554C12.3737 11.0683 11.7549 11.3923 11.0975 11.6159C11.249 11.963 11.3333 12.3469 11.3333 12.75V14.875C11.3333 15.0628 11.2587 15.243 11.1259 15.3758C10.993 15.5087 10.8129 15.5833 10.625 15.5833H6.375C6.18714 15.5833 6.00697 15.5087 5.87413 15.3758C5.74129 15.243 5.66667 15.0628 5.66667 14.875V14.173C4.99021 14.2559 4.42283 14.1822 3.94046 13.9775C3.43612 13.7636 3.08479 13.4321 2.82058 13.1148C2.56983 12.8144 2.29642 12.1373 1.90117 12.0055C1.81289 11.9761 1.73127 11.9296 1.66096 11.8687C1.59065 11.8078 1.53304 11.7336 1.4914 11.6504C1.40732 11.4823 1.39343 11.2878 1.45279 11.1095C1.51216 10.9312 1.63991 10.7838 1.80795 10.6997C1.97599 10.6156 2.17055 10.6017 2.34883 10.6611C2.82058 10.8183 3.128 11.1583 3.33837 11.4318C3.67837 11.8709 3.95462 12.4447 4.49296 12.6735C4.71467 12.7677 5.03979 12.8293 5.54837 12.7599L5.66667 12.7358C5.6683 12.3504 5.74856 11.9693 5.90254 11.6159C5.24512 11.3923 4.62626 11.0683 4.06796 10.6554C2.90842 9.7856 2.125 8.53043 2.125 7.08331C2.125 6.12989 2.46712 5.25439 3.0345 4.52056C2.88575 3.93972 2.8985 3.35322 2.95517 2.90343L2.95871 2.87651C3.01042 2.46426 3.07062 1.97906 3.35962 1.65889C3.77754 1.19635 4.48162 1.46906 4.97462 1.63693L4.97533 1.63622Z" fill="white"/>
</svg>
