<svg width="297" height="297" viewBox="0 0 297 297" fill="none" xmlns="http://www.w3.org/2000/svg">
<path d="M212.061 76.0607C212.646 75.4749 212.646 74.5251 212.061 73.9393L202.515 64.3934C201.929 63.8076 200.979 63.8076 200.393 64.3934C199.808 64.9792 199.808 65.9289 200.393 66.5147L208.879 75L200.393 83.4853C199.808 84.0711 199.808 85.0208 200.393 85.6066C200.979 86.1924 201.929 86.1924 202.515 85.6066L212.061 76.0607ZM137 76.5H211V73.5H137V76.5Z" fill="#9BD4F7"/>
<path d="M81.9393 128.939C81.3536 129.525 81.3536 130.475 81.9393 131.061L91.4853 140.607C92.0711 141.192 93.0208 141.192 93.6066 140.607C94.1924 140.021 94.1924 139.071 93.6066 138.485L85.1213 130L93.6066 121.515C94.1924 120.929 94.1924 119.979 93.6066 119.393C93.0208 118.808 92.0711 118.808 91.4853 119.393L81.9393 128.939ZM153 128.5L83 128.5L83 131.5L153 131.5L153 128.5Z" fill="#9BD4F7"/>
<rect x="13" width="86" height="140" fill="#DEE5FB"/>
<line x1="28" y1="21.5" x2="83" y2="21.5" stroke="#132A55"/>
<line x1="28" y1="46.5" x2="83" y2="46.5" stroke="#132A55"/>
<line x1="28" y1="71.5" x2="83" y2="71.5" stroke="#132A55"/>
<line x1="28" y1="96.5" x2="83" y2="96.5" stroke="#132A55"/>
<line x1="28" y1="121.5" x2="83" y2="121.5" stroke="#132A55"/>
<rect x="195" y="65" width="86" height="140" fill="#DEE5FB"/>
<line x1="210" y1="86.5" x2="265" y2="86.5" stroke="#132A55"/>
<line x1="210" y1="111.5" x2="265" y2="111.5" stroke="#132A55"/>
<line x1="210" y1="136.5" x2="265" y2="136.5" stroke="#132A55"/>
<line x1="210" y1="161.5" x2="265" y2="161.5" stroke="#132A55"/>
<line x1="210" y1="186.5" x2="265" y2="186.5" stroke="#132A55"/>
<path d="M64.4184 161.507C64.146 161.552 63.9616 161.809 64.0067 162.082L64.7408 166.521C64.7859 166.794 65.0433 166.978 65.3157 166.933C65.5881 166.888 65.7725 166.631 65.7274 166.358L65.0749 162.412L69.0213 161.759C69.2937 161.714 69.4781 161.457 69.433 161.184C69.388 160.912 69.1306 160.728 68.8581 160.773L64.4184 161.507ZM167.5 188.5L162.528 185.566L162.473 191.339L167.5 188.5ZM64.2089 162.406C76.2757 171.049 112.446 187.993 162.987 188.957L163.007 187.957C112.655 186.996 76.684 170.111 64.7911 161.594L64.2089 162.406Z" fill="black"/>
<path d="M218.082 39.9933C218.354 39.9483 218.538 39.6909 218.493 39.4184L217.759 34.9787C217.714 34.7063 217.457 34.5219 217.184 34.567C216.912 34.612 216.728 34.8694 216.773 35.1419L217.425 39.0883L213.479 39.7408C213.206 39.7859 213.022 40.0433 213.067 40.3157C213.112 40.5881 213.369 40.7725 213.642 40.7274L218.082 39.9933ZM115 13L119.972 15.9343L120.027 10.161L115 13ZM218.291 39.0935C206.224 30.451 170.054 13.5074 119.513 12.543L119.493 13.5428C169.845 14.5036 205.816 31.3887 217.709 39.9065L218.291 39.0935Z" fill="black"/>
<path d="M1.64 269.216C1.55467 269.216 1.40533 269.173 1.192 269.088C0.978667 269.045 0.872 268.96 0.872 268.832C0.872 268.789 0.893333 268.747 0.936 268.704C0.978667 268.661 1 268.64 1 268.64C1.29867 268.555 1.42667 268.512 1.384 268.512C1.384 268.555 1.53333 268.533 1.832 268.448C2.55733 268.192 3.176 267.829 3.688 267.36C4.24267 266.848 4.712 266.251 5.096 265.568C7.10133 262.24 9.02133 258.869 10.856 255.456C12.6907 252 14.5253 248.565 16.36 245.152C16.872 244.256 17.3627 243.339 17.832 242.4C18.3013 241.461 18.7707 240.523 19.24 239.584C19.4533 239.072 19.6667 238.56 19.88 238.048C20.136 237.536 20.4133 237.045 20.712 236.576C21.0533 235.979 21.5867 235.467 22.312 235.04C23.08 234.571 23.8053 234.229 24.488 234.016H22.952C22.0987 234.016 20.9253 234.08 19.432 234.208C17.9813 234.293 16.4453 234.464 14.824 234.72C13.2027 234.976 11.752 235.36 10.472 235.872C9.23467 236.384 8.38133 237.067 7.912 237.92C7.48533 238.688 7.272 239.435 7.272 240.16C7.272 241.013 7.464 241.589 7.848 241.888C8.232 242.187 8.424 242.379 8.424 242.464C8.424 242.549 8.36 242.635 8.232 242.72C8.104 242.805 7.99733 242.848 7.912 242.848C7.656 242.848 7.336 242.592 6.952 242.08C6.568 241.568 6.20533 241.013 5.864 240.416C5.56533 239.776 5.37333 239.349 5.288 239.136C5.16 238.667 5.096 238.197 5.096 237.728C5.096 236.576 5.48 235.701 6.248 235.104C7.05867 234.464 8.04 234.016 9.192 233.76C10.344 233.504 11.496 233.355 12.648 233.312C13.8427 233.227 14.824 233.184 15.592 233.184C17.7253 233.184 19.8587 233.141 21.992 233.056C24.1253 232.928 26.2373 232.864 28.328 232.864C30.3333 232.864 32.296 233.013 34.216 233.312C36.1787 233.568 37.9493 234.101 39.528 234.912C41.1067 235.723 42.3653 236.875 43.304 238.368C44.2853 239.861 44.776 241.824 44.776 244.256C44.776 246.475 44.3493 248.757 43.496 251.104C42.6853 253.408 41.6613 255.477 40.424 257.312C35.2187 265.12 27.9227 269.024 18.536 269.024C17.0853 269.024 15.592 268.875 14.056 268.576C12.5627 268.277 11.1547 267.787 9.832 267.104C9.53333 266.933 9.21333 266.805 8.872 266.72C8.57333 266.592 8.25333 266.528 7.912 266.528C7.18667 266.528 6.46133 266.763 5.736 267.232C5.01067 267.659 4.30667 268.085 3.624 268.512C2.94133 268.981 2.28 269.216 1.64 269.216ZM17.768 268.128C20.968 268.128 23.9547 267.509 26.728 266.272C29.5013 265.035 31.9333 263.307 34.024 261.088C36.1147 258.827 37.7573 256.245 38.952 253.344C39.5067 251.979 39.9547 250.549 40.296 249.056C40.68 247.563 40.872 246.091 40.872 244.64C40.872 241.312 39.848 238.752 37.8 236.96C35.7947 235.125 33.1493 234.208 29.864 234.208C29.0533 234.208 28.2 234.293 27.304 234.464C26.4507 234.635 25.7467 235.04 25.192 235.68C24.6373 236.363 24.104 237.109 23.592 237.92C23.1227 238.731 22.6533 239.52 22.184 240.288C21.2027 241.995 20.264 243.765 19.368 245.6C18.5147 247.392 17.64 249.163 16.744 250.912C15.336 253.6 13.9493 256.309 12.584 259.04C12.2853 259.637 11.9653 260.256 11.624 260.896C11.3253 261.493 11.0267 262.091 10.728 262.688C10.6427 262.901 10.5573 263.136 10.472 263.392C10.3867 263.605 10.344 263.861 10.344 264.16C10.344 264.715 10.5147 265.184 10.856 265.568C11.1973 265.952 11.56 266.315 11.944 266.656C12.7547 267.253 13.6933 267.659 14.76 267.872C15.8267 268.043 16.8293 268.128 17.768 268.128ZM44.2625 268.128C43.5798 268.128 42.9612 268 42.4065 267.744C41.8945 267.445 41.6385 266.827 41.6385 265.888C41.6385 264.395 42.0225 262.901 42.7905 261.408C43.5585 259.872 44.3478 258.528 45.1585 257.376C45.8838 256.395 46.6945 255.477 47.5905 254.624C48.5292 253.728 49.5318 252.96 50.5985 252.32C51.2812 251.893 52.1985 251.445 53.3505 250.976C54.5452 250.464 55.5478 250.208 56.3585 250.208C57.0412 250.208 57.6385 250.4 58.1505 250.784C58.6625 251.125 58.9185 251.765 58.9185 252.704C58.9185 254.155 58.5345 255.648 57.7665 257.184C57.0412 258.677 56.2732 260 55.4625 261.152C55.0785 261.664 54.6945 262.155 54.3105 262.624C53.9265 263.051 53.4998 263.499 53.0305 263.968C54.6092 263.968 56.0598 263.52 57.3825 262.624C58.7052 261.685 59.8572 260.555 60.8385 259.232L60.9665 259.104C61.0945 259.104 61.1585 259.232 61.1585 259.488C61.1585 259.787 61.0732 260.064 60.9025 260.32C60.0492 261.515 58.9825 262.581 57.7025 263.52C56.4225 264.416 54.9718 264.864 53.3505 264.864C53.1798 264.864 53.0092 264.864 52.8385 264.864C52.6678 264.864 52.4972 264.843 52.3265 264.8C49.9372 267.019 47.2492 268.128 44.2625 268.128ZM45.9265 267.04C46.5238 267.04 47.1638 266.827 47.8465 266.4C48.5718 265.973 49.1265 265.568 49.5105 265.184C50.2358 264.459 50.8972 263.691 51.4945 262.88C52.0918 262.027 52.6465 261.173 53.1585 260.32C53.7558 259.296 54.3532 258.08 54.9505 256.672C55.5478 255.264 55.8465 253.941 55.8465 252.704C55.8465 251.723 55.5052 251.232 54.8225 251.232C54.2678 251.232 53.5852 251.467 52.7745 251.936C52.0065 252.405 51.4305 252.832 51.0465 253.216C49.5958 254.709 48.3798 256.331 47.3985 258.08C46.8438 259.061 46.2465 260.213 45.6065 261.536C44.9665 262.859 44.6465 264.075 44.6465 265.184C44.6465 265.355 44.6465 265.525 44.6465 265.696C44.6892 265.824 44.7318 265.973 44.7745 266.144C44.9452 266.741 45.3292 267.04 45.9265 267.04ZM62.864 268.512C61.2853 268.512 60.176 268.213 59.536 267.616C58.896 267.019 58.576 266.251 58.576 265.312C58.576 264.075 58.9813 262.709 59.792 261.216C60.6027 259.68 61.3707 258.4 62.096 257.376C62.8213 256.395 63.632 255.477 64.528 254.624C65.4667 253.728 66.4693 252.96 67.536 252.32C68.2187 251.893 69.136 251.445 70.288 250.976C71.4827 250.464 72.4853 250.208 73.296 250.208C74.2773 250.208 74.96 250.443 75.344 250.912C75.728 251.339 75.92 251.872 75.92 252.512C75.92 253.024 75.8347 253.557 75.664 254.112C75.4933 254.624 75.3013 255.115 75.088 255.584C74.96 255.84 74.768 256.032 74.512 256.16C74.256 256.245 74.128 256.203 74.128 256.032C74.128 255.819 74.1493 255.627 74.192 255.456C74.2347 255.285 74.256 255.093 74.256 254.88C74.256 254.069 74.064 253.28 73.68 252.512C73.3387 251.701 72.8053 251.296 72.08 251.296C71.312 251.296 70.48 251.573 69.584 252.128C68.688 252.64 68.0693 253.088 67.728 253.472C66.6187 254.624 65.5307 256.053 64.464 257.76C63.44 259.467 62.6933 261.088 62.224 262.624C61.9253 263.52 61.776 264.288 61.776 264.928C61.776 265.653 61.968 266.165 62.352 266.464C62.736 266.763 63.2053 266.912 63.76 266.912C64.1867 266.912 64.6347 266.848 65.104 266.72C65.616 266.592 66.1493 266.443 66.704 266.272C67.984 265.845 69.264 265.184 70.544 264.288C71.8667 263.349 73.0613 262.368 74.128 261.344C75.1947 260.277 76.0053 259.36 76.56 258.592C76.6453 258.677 76.688 258.805 76.688 258.976C76.688 259.189 76.6027 259.445 76.432 259.744C76.2613 260 76.1333 260.213 76.048 260.384C75.152 261.579 73.9787 262.816 72.528 264.096C71.0773 265.333 69.4987 266.379 67.792 267.232C66.128 268.085 64.4853 268.512 62.864 268.512ZM79.01 268.192C78.5833 268.192 78.2207 268.107 77.922 267.936C77.6233 267.765 77.474 267.445 77.474 266.976C77.474 266.379 77.6233 265.675 77.922 264.864C78.2633 264.053 78.626 263.243 79.01 262.432C79.394 261.621 79.714 260.96 79.97 260.448C80.482 259.467 80.9727 258.485 81.442 257.504C81.9113 256.523 82.3167 255.691 82.658 255.008C82.9993 254.368 83.17 253.941 83.17 253.728C83.17 253.387 82.914 253.387 82.402 253.728C81.9327 254.069 81.4847 254.411 81.058 254.752C80.1193 255.648 79.138 256.715 78.114 257.952C77.09 259.147 76.3007 260.107 75.746 260.832C75.618 261.003 75.5113 261.088 75.426 261.088C75.3407 261.088 75.298 260.981 75.298 260.768C75.298 260.427 75.4047 260.107 75.618 259.808C76.2153 258.955 76.9193 258.016 77.73 256.992C78.5407 255.968 79.3727 254.987 80.226 254.048C81.0367 253.195 81.8687 252.363 82.722 251.552C83.5753 250.741 84.6633 250.336 85.986 250.336C86.882 250.336 87.33 250.677 87.33 251.36C87.33 251.957 87.074 252.64 86.562 253.408C86.2633 253.877 85.794 254.667 85.154 255.776C84.514 256.885 83.8527 258.101 83.17 259.424C82.53 260.704 81.9753 261.899 81.506 263.008C81.0367 264.117 80.802 264.928 80.802 265.44C80.802 266.037 81.1007 266.336 81.698 266.336C82.1673 266.336 82.7433 266.101 83.426 265.632C84.1087 265.12 84.8127 264.523 85.538 263.84C86.8607 262.56 88.0553 261.173 89.122 259.68C90.2313 258.144 91.17 256.672 91.938 255.264C92.7487 253.856 93.3887 252.704 93.858 251.808C93.9433 251.637 94.0287 251.445 94.114 251.232C94.242 250.976 94.434 250.827 94.69 250.784C94.946 250.741 95.5007 250.72 96.354 250.72C97.2073 250.72 97.9967 250.549 98.722 250.208H98.85C98.978 250.208 99.042 250.272 99.042 250.4C99.042 250.741 98.7647 250.997 98.21 251.168C97.698 251.339 97.1007 251.851 96.418 252.704C95.778 253.557 95.138 254.603 94.498 255.84C93.858 257.035 93.282 258.272 92.77 259.552C92.258 260.832 91.874 262.005 91.618 263.072C91.362 264.139 91.298 264.928 91.426 265.44C91.5967 266.037 91.8953 266.336 92.322 266.336C92.8767 266.336 93.6447 265.995 94.626 265.312C95.65 264.629 96.6953 263.819 97.762 262.88C98.8287 261.899 99.7033 261.003 100.386 260.192C100.685 259.851 100.962 259.509 101.218 259.168C101.474 258.827 101.645 258.613 101.73 258.528C101.773 258.571 101.815 258.656 101.858 258.784C101.901 258.869 101.922 258.955 101.922 259.04C101.879 259.339 101.773 259.637 101.602 259.936C101.431 260.192 101.239 260.427 101.026 260.64C100.215 261.707 99.234 262.837 98.082 264.032C96.9727 265.184 95.7567 266.165 94.434 266.976C93.154 267.787 91.8313 268.192 90.466 268.192C90.0393 268.192 89.5487 268.085 88.994 267.872C88.482 267.659 88.226 267.189 88.226 266.464C88.226 265.909 88.3753 265.163 88.674 264.224C88.9727 263.243 89.2927 262.283 89.634 261.344C90.018 260.363 90.338 259.637 90.594 259.168C90.0393 259.979 89.3567 260.896 88.546 261.92C87.778 262.901 86.9887 263.776 86.178 264.544C85.1113 265.568 83.9593 266.443 82.722 267.168C81.5273 267.851 80.29 268.192 79.01 268.192ZM100.935 268.96C100.764 268.96 100.764 268.768 100.935 268.384C101.148 268 101.34 267.573 101.511 267.104C101.724 266.635 101.938 266.123 102.151 265.568C102.578 264.544 103.047 263.392 103.559 262.112C104.071 260.832 104.562 259.595 105.031 258.4C105.5 257.163 105.906 256.117 106.247 255.264C106.631 254.368 106.887 253.792 107.015 253.536C106.418 254.176 105.692 254.987 104.839 255.968C104.028 256.907 103.26 257.824 102.535 258.72C101.81 259.616 101.255 260.32 100.871 260.832C100.743 261.003 100.636 261.088 100.551 261.088C100.466 261.088 100.423 260.981 100.423 260.768C100.423 260.427 100.53 260.107 100.743 259.808C101.554 258.784 102.45 257.632 103.431 256.352C104.455 255.072 105.372 253.899 106.183 252.832C106.994 251.723 107.506 250.997 107.719 250.656C108.188 250.571 108.871 250.443 109.767 250.272C110.706 250.101 111.346 249.867 111.687 249.568C111.815 249.44 111.943 249.376 112.071 249.376C112.156 249.376 112.199 249.461 112.199 249.632C112.242 249.76 112.199 249.909 112.071 250.08C111.815 250.379 111.367 251.083 110.727 252.192C110.13 253.259 109.468 254.453 108.743 255.776C108.06 257.099 107.42 258.293 106.823 259.36C107.506 258.549 108.167 257.781 108.807 257.056C109.49 256.331 109.959 255.819 110.215 255.52C110.727 255.008 111.431 254.368 112.327 253.6C113.223 252.832 114.162 252.128 115.143 251.488C116.124 250.848 116.978 250.485 117.703 250.4C117.874 250.357 118.023 250.336 118.151 250.336C118.279 250.336 118.407 250.336 118.535 250.336C119.346 250.336 119.751 250.635 119.751 251.232C119.751 251.488 119.687 251.787 119.559 252.128C119.431 252.469 119.26 252.811 119.047 253.152C118.791 253.664 118.364 254.475 117.767 255.584C117.17 256.651 116.636 257.632 116.167 258.528L119.175 255.52C119.687 255.008 120.391 254.368 121.287 253.6C122.183 252.832 123.122 252.128 124.103 251.488C125.084 250.848 125.938 250.485 126.663 250.4C126.834 250.357 126.983 250.336 127.111 250.336C127.282 250.336 127.41 250.336 127.495 250.336C128.434 250.336 128.903 250.677 128.903 251.36C128.903 251.872 128.626 252.555 128.071 253.408C127.772 253.877 127.303 254.667 126.663 255.776C126.023 256.885 125.362 258.101 124.679 259.424C124.039 260.704 123.484 261.899 123.015 263.008C122.546 264.117 122.311 264.928 122.311 265.44C122.311 266.037 122.61 266.336 123.207 266.336C123.762 266.336 124.466 266.016 125.319 265.376C126.215 264.693 127.111 263.883 128.007 262.944C128.946 262.005 129.756 261.109 130.439 260.256C130.738 259.915 131.015 259.573 131.271 259.232C131.57 258.848 131.74 258.635 131.783 258.592C131.868 258.677 131.911 258.827 131.911 259.04C131.911 259.339 131.804 259.637 131.591 259.936C131.42 260.192 131.25 260.427 131.079 260.64C130.268 261.707 129.33 262.816 128.263 263.968C127.239 265.12 126.108 266.101 124.871 266.912C123.634 267.68 122.311 268.128 120.903 268.256C120.476 268.299 120.05 268.213 119.623 268C119.196 267.787 118.983 267.445 118.983 266.976C118.983 266.379 119.132 265.675 119.431 264.864C119.772 264.053 120.135 263.243 120.519 262.432C120.946 261.621 121.266 260.96 121.479 260.448C122.247 258.955 122.951 257.547 123.591 256.224C124.231 254.901 124.679 253.963 124.935 253.408C125.063 253.152 125.127 252.939 125.127 252.768C125.127 252.469 124.892 252.448 124.423 252.704C123.954 252.96 123.378 253.344 122.695 253.856C122.055 254.368 121.458 254.88 120.903 255.392C120.348 255.861 119.986 256.181 119.815 256.352C119.09 257.077 118.215 258.059 117.191 259.296C116.21 260.533 115.292 261.835 114.439 263.2C113.586 264.523 112.988 265.76 112.647 266.912C112.22 267.296 111.815 267.488 111.431 267.488C111.132 267.488 110.876 267.381 110.663 267.168C110.492 266.955 110.407 266.699 110.407 266.4C110.407 265.547 110.663 264.544 111.175 263.392C111.73 262.197 112.178 261.216 112.519 260.448C113.287 258.955 113.991 257.547 114.631 256.224C115.271 254.901 115.719 253.963 115.975 253.408C116.103 253.152 116.167 252.939 116.167 252.768C116.167 252.469 115.932 252.448 115.463 252.704C114.994 252.96 114.418 253.344 113.735 253.856C113.095 254.368 112.498 254.88 111.943 255.392C111.388 255.861 111.026 256.181 110.855 256.352C109.831 257.419 108.871 258.507 107.975 259.616C107.122 260.725 106.396 261.92 105.799 263.2C105.458 263.968 105.095 264.821 104.711 265.76C104.327 266.699 104.007 267.488 103.751 268.128C103.196 268.171 102.642 268.32 102.087 268.576C101.532 268.832 101.148 268.96 100.935 268.96ZM134.262 268.512C132.512 268.512 131.296 268.171 130.614 267.488C129.931 266.805 129.59 265.973 129.59 264.992C129.59 263.755 129.91 262.432 130.549 261.024C131.232 259.616 131.872 258.421 132.47 257.44C133.152 256.416 134.07 255.349 135.222 254.24C136.374 253.131 137.632 252.192 138.998 251.424C140.363 250.656 141.686 250.272 142.966 250.272C144.075 250.272 144.843 250.549 145.27 251.104C145.696 251.616 145.91 252.235 145.91 252.96C145.91 254.283 145.504 255.371 144.694 256.224C143.926 257.077 142.966 257.781 141.814 258.336C140.662 258.848 139.552 259.275 138.486 259.616C137.846 259.787 137.099 259.957 136.246 260.128C135.392 260.299 134.582 260.384 133.814 260.384C133.515 261.152 133.28 261.899 133.11 262.624C132.939 263.349 132.854 264.011 132.854 264.608C132.854 265.333 133.024 265.931 133.366 266.4C133.75 266.869 134.368 267.104 135.222 267.104C135.563 267.104 135.968 267.061 136.438 266.976C136.907 266.891 137.419 266.763 137.974 266.592C139.254 266.165 140.512 265.483 141.75 264.544C142.987 263.605 144.118 262.603 145.142 261.536C146.208 260.427 147.019 259.509 147.574 258.784C147.702 258.912 147.766 259.061 147.766 259.232C147.766 259.445 147.616 259.787 147.318 260.256C146.464 261.451 145.355 262.688 143.99 263.968C142.624 265.248 141.11 266.336 139.446 267.232C137.782 268.085 136.054 268.512 134.262 268.512ZM134.326 259.104C134.88 259.147 135.499 259.147 136.182 259.104C136.907 259.019 137.611 258.869 138.294 258.656C140.043 258.144 141.302 257.333 142.07 256.224C142.88 255.072 143.286 254.048 143.286 253.152C143.286 252.64 143.179 252.213 142.966 251.872C142.752 251.531 142.411 251.36 141.942 251.36C140.704 251.36 139.595 251.829 138.614 252.768C137.632 253.664 136.779 254.709 136.054 255.904C135.328 257.099 134.752 258.165 134.326 259.104ZM146.935 268.96C146.764 268.96 146.764 268.768 146.935 268.384C147.148 268 147.34 267.573 147.511 267.104C147.724 266.635 147.938 266.123 148.151 265.568C148.578 264.544 149.047 263.392 149.559 262.112C150.071 260.832 150.562 259.595 151.031 258.4C151.5 257.163 151.906 256.117 152.247 255.264C152.631 254.368 152.887 253.792 153.015 253.536C152.418 254.176 151.692 254.987 150.839 255.968C150.028 256.907 149.26 257.824 148.535 258.72C147.81 259.616 147.255 260.32 146.871 260.832C146.743 261.003 146.636 261.088 146.551 261.088C146.466 261.088 146.423 260.981 146.423 260.768C146.423 260.427 146.53 260.107 146.743 259.808C147.554 258.784 148.45 257.632 149.431 256.352C150.455 255.072 151.372 253.899 152.183 252.832C152.994 251.723 153.506 250.997 153.719 250.656C154.188 250.571 154.871 250.443 155.767 250.272C156.706 250.101 157.346 249.867 157.687 249.568C157.815 249.44 157.943 249.376 158.071 249.376C158.156 249.376 158.199 249.461 158.199 249.632C158.242 249.76 158.199 249.909 158.071 250.08C157.815 250.379 157.367 251.083 156.727 252.192C156.13 253.259 155.468 254.453 154.743 255.776C154.06 257.099 153.42 258.293 152.823 259.36C153.335 258.677 153.89 258.016 154.487 257.376C155.084 256.736 155.66 256.117 156.215 255.52C156.727 255.008 157.431 254.368 158.327 253.6C159.223 252.832 160.162 252.128 161.143 251.488C162.124 250.848 162.978 250.485 163.703 250.4C163.874 250.357 164.023 250.336 164.151 250.336C164.322 250.336 164.45 250.336 164.535 250.336C165.474 250.336 165.943 250.677 165.943 251.36C165.943 251.872 165.666 252.555 165.111 253.408C164.812 253.877 164.343 254.667 163.703 255.776C163.106 256.843 162.487 258.016 161.847 259.296C161.25 260.533 160.716 261.707 160.247 262.816C159.82 263.883 159.607 264.672 159.607 265.184C159.607 265.781 159.906 266.08 160.503 266.08C161.228 266.08 162.018 265.717 162.871 264.992C163.767 264.267 164.727 263.349 165.751 262.24C166.775 261.088 167.799 259.872 168.823 258.592C168.908 258.677 168.951 258.827 168.951 259.04C168.951 259.339 168.844 259.637 168.631 259.936C168.46 260.192 168.29 260.427 168.119 260.64C167.692 261.195 167.116 261.899 166.391 262.752C165.708 263.563 165.004 264.373 164.279 265.184C163.554 265.952 162.892 266.571 162.295 267.04C161.868 267.339 161.314 267.659 160.631 268C159.948 268.341 159.266 268.512 158.583 268.512C157.815 268.512 157.282 268.32 156.983 267.936C156.684 267.509 156.535 266.997 156.535 266.4C156.535 265.717 156.663 264.992 156.919 264.224C157.175 263.456 157.452 262.731 157.751 262.048C158.092 261.323 158.348 260.789 158.519 260.448C159.287 258.955 159.991 257.547 160.631 256.224C161.271 254.901 161.719 253.963 161.975 253.408C162.103 253.152 162.167 252.939 162.167 252.768C162.167 252.469 161.932 252.448 161.463 252.704C160.994 252.96 160.418 253.344 159.735 253.856C159.095 254.368 158.498 254.88 157.943 255.392C157.388 255.861 157.026 256.181 156.855 256.352C155.276 258.016 153.89 259.872 152.695 261.92C151.543 263.925 150.562 265.995 149.751 268.128C149.196 268.171 148.642 268.32 148.087 268.576C147.532 268.832 147.148 268.96 146.935 268.96ZM170.236 268.192C169.809 268.192 169.447 268.107 169.148 267.936C168.849 267.765 168.7 267.445 168.7 266.976C168.7 266.379 168.849 265.675 169.148 264.864C169.489 264.053 169.852 263.243 170.236 262.432C170.62 261.621 170.94 260.96 171.196 260.448C171.409 260.064 171.687 259.467 172.028 258.656C172.412 257.803 172.796 256.928 173.18 256.032C173.607 255.093 173.948 254.304 174.204 253.664C174.503 253.024 174.652 252.704 174.652 252.704C174.268 253.131 173.756 253.728 173.116 254.496C172.519 255.264 171.857 256.075 171.132 256.928C170.449 257.739 169.809 258.507 169.212 259.232C168.657 259.957 168.252 260.491 167.996 260.832C167.868 261.003 167.761 261.088 167.676 261.088C167.591 261.088 167.548 260.981 167.548 260.768C167.548 260.427 167.655 260.107 167.868 259.808C168.38 259.168 168.999 258.4 169.724 257.504C170.449 256.565 171.175 255.627 171.9 254.688C172.668 253.749 173.329 252.917 173.884 252.192C173.543 252.192 173.095 252.213 172.54 252.256C172.028 252.299 171.559 252.363 171.132 252.448C170.705 252.491 170.471 252.512 170.428 252.512C170.215 252.512 170.236 252.341 170.492 252C170.748 251.659 171.089 251.317 171.516 250.976C171.943 250.635 172.263 250.464 172.476 250.464C172.519 250.464 172.86 250.485 173.5 250.528C174.14 250.528 174.609 250.528 174.908 250.528C175.761 249.376 176.593 248.053 177.404 246.56C178.257 245.067 179.089 243.424 179.9 241.632C180.241 241.589 180.817 241.355 181.628 240.928C182.481 240.459 183.143 239.989 183.612 239.52C183.825 239.307 183.996 239.2 184.124 239.2C184.38 239.2 184.38 239.371 184.124 239.712C183.825 240.053 183.313 240.779 182.588 241.888C181.863 242.955 181.052 244.256 180.156 245.792C179.26 247.285 178.407 248.864 177.596 250.528H182.78C183.249 250.528 183.484 250.592 183.484 250.72C183.484 250.891 183.164 251.061 182.524 251.232C181.799 251.445 181.031 251.573 180.22 251.616C179.452 251.659 178.727 251.744 178.044 251.872C177.404 252 176.935 252.277 176.636 252.704C176.38 253.003 176.017 253.643 175.548 254.624C175.079 255.605 174.567 256.736 174.012 258.016C173.5 259.253 173.052 260.512 172.668 261.792C172.284 263.029 172.049 264.075 171.964 264.928V265.184C171.964 265.525 172.071 265.803 172.284 266.016C172.497 266.229 172.711 266.336 172.924 266.336C173.479 266.336 174.183 265.995 175.036 265.312C175.932 264.629 176.849 263.819 177.788 262.88C178.727 261.899 179.537 261.003 180.22 260.192C180.519 259.851 180.775 259.531 180.988 259.232C181.244 258.933 181.393 258.741 181.436 258.656C181.521 258.827 181.564 258.955 181.564 259.04C181.564 259.296 181.479 259.573 181.308 259.872C181.18 260.171 181.031 260.427 180.86 260.64C180.049 261.707 179.068 262.837 177.916 264.032C176.764 265.184 175.527 266.165 174.204 266.976C172.924 267.787 171.601 268.192 170.236 268.192ZM196.296 269.28C194.973 269.28 193.715 268.896 192.52 268.128C191.325 267.36 190.429 266.229 189.832 264.736C189.619 264.181 189.469 263.584 189.384 262.944C189.341 262.304 189.32 261.685 189.32 261.088V260.256C189.32 259.957 189.341 259.68 189.384 259.424C189.469 259.168 189.64 259.04 189.896 259.04C189.981 259.04 190.024 259.083 190.024 259.168C190.024 259.424 190.003 259.68 189.96 259.936C189.96 260.192 189.96 260.448 189.96 260.704C189.96 262.709 190.451 264.224 191.432 265.248C192.456 266.272 193.715 266.784 195.208 266.784C196.701 266.784 198.152 266.357 199.56 265.504C200.968 264.651 202.269 263.563 203.464 262.24C204.445 261.173 205.405 259.787 206.344 258.08C207.325 256.373 208.328 254.539 209.352 252.576C207.987 252.619 206.557 252.683 205.064 252.768C203.571 252.811 202.205 252.939 200.968 253.152C200.584 253.195 200.477 253.088 200.648 252.832C200.819 252.576 201.139 252.256 201.608 251.872C202.077 251.488 202.568 251.147 203.08 250.848C203.635 250.549 204.083 250.379 204.424 250.336C205.149 250.379 206.045 250.421 207.112 250.464C208.221 250.464 209.309 250.485 210.376 250.528C211.315 248.821 212.211 247.093 213.064 245.344C213.96 243.552 214.792 241.888 215.56 240.352C215.987 239.499 216.541 238.645 217.224 237.792C217.949 236.896 218.739 236.107 219.592 235.424C220.488 234.741 221.405 234.315 222.344 234.144C220.083 234.229 217.736 234.293 215.304 234.336C212.915 234.379 210.632 234.699 208.456 235.296C207.475 235.552 206.6 235.893 205.832 236.32C205.064 236.747 204.509 237.28 204.168 237.92C203.827 238.56 203.656 239.264 203.656 240.032C203.656 241.099 203.955 241.867 204.552 242.336C204.595 242.379 204.616 242.421 204.616 242.464C204.616 242.549 204.531 242.635 204.36 242.72C204.232 242.805 204.104 242.827 203.976 242.784C203.592 242.571 203.123 242.059 202.568 241.248C202.013 240.395 201.672 239.691 201.544 239.136C201.416 238.624 201.352 238.155 201.352 237.728C201.352 236.619 201.715 235.765 202.44 235.168C203.165 234.528 204.083 234.08 205.192 233.824C206.301 233.525 207.432 233.355 208.584 233.312C209.736 233.227 210.76 233.184 211.656 233.184H218.76C220.381 233.184 221.789 233.184 222.984 233.184C224.179 233.141 225.139 233.056 225.864 232.928C225.949 232.928 226.013 232.928 226.056 232.928C226.099 232.885 226.141 232.864 226.184 232.864C226.44 232.864 226.568 232.949 226.568 233.12C226.568 233.291 226.483 233.461 226.312 233.632C226.184 233.76 226.077 233.824 225.992 233.824C224.669 233.952 223.432 234.528 222.28 235.552C221.128 236.576 220.083 237.899 219.144 239.52C218.888 239.989 218.419 240.864 217.736 242.144C217.053 243.424 216.307 244.832 215.496 246.368C214.685 247.904 213.939 249.333 213.256 250.656C214.067 250.699 214.728 250.741 215.24 250.784C215.795 250.784 216.115 250.784 216.2 250.784H225.608C225.992 250.784 226.696 250.72 227.72 250.592C228.787 250.464 229.597 250.272 230.152 250.016C231.304 247.797 232.477 245.6 233.672 243.424C234.867 241.248 235.976 239.307 237 237.6C238.067 235.851 238.899 234.592 239.496 233.824C240.221 233.525 241.032 233.163 241.928 232.736C242.867 232.309 243.784 231.925 244.68 231.584C245.619 231.243 246.451 231.072 247.176 231.072C247.389 231.072 247.603 231.136 247.816 231.264C248.072 231.392 248.2 231.52 248.2 231.648C248.2 231.861 247.773 231.968 246.92 231.968C246.493 231.968 246.045 232.053 245.576 232.224C245.107 232.352 244.509 232.8 243.784 233.568C243.187 234.165 242.397 235.189 241.416 236.64C240.477 238.048 239.453 239.712 238.344 241.632C237.235 243.509 236.104 245.493 234.952 247.584C233.843 249.675 232.797 251.723 231.816 253.728C230.835 255.691 230.003 257.483 229.32 259.104C228.637 260.683 228.189 261.899 227.976 262.752C227.933 263.051 227.869 263.392 227.784 263.776C227.741 264.117 227.72 264.459 227.72 264.8C227.72 265.483 227.891 266.08 228.232 266.592C228.573 267.104 229.213 267.36 230.152 267.36C230.835 267.36 231.517 267.232 232.2 266.976C232.925 266.72 233.565 266.443 234.12 266.144C235.656 265.291 237.043 264.139 238.28 262.688C239.517 261.195 240.52 259.936 241.288 258.912C241.416 258.741 241.501 258.656 241.544 258.656C241.672 258.656 241.736 258.805 241.736 259.104C241.736 259.36 241.672 259.595 241.544 259.808C240.733 260.96 239.667 262.304 238.344 263.84C237.021 265.333 235.485 266.571 233.736 267.552C232.371 268.277 230.813 268.64 229.064 268.64C227.741 268.64 226.589 268.171 225.608 267.232C224.669 266.251 224.2 265.077 224.2 263.712C224.2 263.029 224.328 262.347 224.584 261.664C224.968 260.683 225.587 259.275 226.44 257.44C227.336 255.605 228.339 253.579 229.448 251.36C229.021 251.744 228.531 252.085 227.976 252.384C227.421 252.683 226.888 252.811 226.376 252.768C225.053 252.64 223.539 252.576 221.832 252.576C220.168 252.533 218.013 252.512 215.368 252.512H212.296C211.101 254.944 209.864 257.333 208.584 259.68C207.304 261.984 205.981 263.883 204.616 265.376C203.549 266.528 202.269 267.467 200.776 268.192C199.283 268.917 197.789 269.28 196.296 269.28ZM244.01 268.192C243.583 268.192 243.221 268.107 242.922 267.936C242.623 267.765 242.474 267.445 242.474 266.976C242.474 266.379 242.623 265.675 242.922 264.864C243.263 264.053 243.626 263.243 244.01 262.432C244.394 261.621 244.714 260.96 244.97 260.448C245.482 259.467 245.973 258.485 246.442 257.504C246.911 256.523 247.317 255.691 247.658 255.008C247.999 254.368 248.17 253.941 248.17 253.728C248.17 253.387 247.914 253.387 247.402 253.728C246.933 254.069 246.485 254.411 246.058 254.752C245.119 255.648 244.138 256.715 243.114 257.952C242.09 259.147 241.301 260.107 240.746 260.832C240.618 261.003 240.511 261.088 240.426 261.088C240.341 261.088 240.298 260.981 240.298 260.768C240.298 260.427 240.405 260.107 240.618 259.808C241.215 258.955 241.919 258.016 242.73 256.992C243.541 255.968 244.373 254.987 245.226 254.048C246.037 253.195 246.869 252.363 247.722 251.552C248.575 250.741 249.663 250.336 250.986 250.336C251.882 250.336 252.33 250.677 252.33 251.36C252.33 251.957 252.074 252.64 251.562 253.408C251.263 253.877 250.794 254.667 250.154 255.776C249.514 256.885 248.853 258.101 248.17 259.424C247.53 260.704 246.975 261.899 246.506 263.008C246.037 264.117 245.802 264.928 245.802 265.44C245.802 266.037 246.101 266.336 246.698 266.336C247.167 266.336 247.743 266.101 248.426 265.632C249.109 265.12 249.813 264.523 250.538 263.84C251.861 262.56 253.055 261.173 254.122 259.68C255.231 258.144 256.17 256.672 256.938 255.264C257.749 253.856 258.389 252.704 258.858 251.808C258.943 251.637 259.029 251.445 259.114 251.232C259.242 250.976 259.434 250.827 259.69 250.784C259.946 250.741 260.501 250.72 261.354 250.72C262.207 250.72 262.997 250.549 263.722 250.208H263.85C263.978 250.208 264.042 250.272 264.042 250.4C264.042 250.741 263.765 250.997 263.21 251.168C262.698 251.339 262.101 251.851 261.418 252.704C260.778 253.557 260.138 254.603 259.498 255.84C258.858 257.035 258.282 258.272 257.77 259.552C257.258 260.832 256.874 262.005 256.618 263.072C256.362 264.139 256.298 264.928 256.426 265.44C256.597 266.037 256.895 266.336 257.322 266.336C257.877 266.336 258.645 265.995 259.626 265.312C260.65 264.629 261.695 263.819 262.762 262.88C263.829 261.899 264.703 261.003 265.386 260.192C265.685 259.851 265.962 259.509 266.218 259.168C266.474 258.827 266.645 258.613 266.73 258.528C266.773 258.571 266.815 258.656 266.858 258.784C266.901 258.869 266.922 258.955 266.922 259.04C266.879 259.339 266.773 259.637 266.602 259.936C266.431 260.192 266.239 260.427 266.026 260.64C265.215 261.707 264.234 262.837 263.082 264.032C261.973 265.184 260.757 266.165 259.434 266.976C258.154 267.787 256.831 268.192 255.466 268.192C255.039 268.192 254.549 268.085 253.994 267.872C253.482 267.659 253.226 267.189 253.226 266.464C253.226 265.909 253.375 265.163 253.674 264.224C253.973 263.243 254.293 262.283 254.634 261.344C255.018 260.363 255.338 259.637 255.594 259.168C255.039 259.979 254.357 260.896 253.546 261.92C252.778 262.901 251.989 263.776 251.178 264.544C250.111 265.568 248.959 266.443 247.722 267.168C246.527 267.851 245.29 268.192 244.01 268.192ZM268.239 268.576C267.684 268.576 267.023 268.469 266.255 268.256C265.487 268.085 265.103 267.616 265.103 266.848C265.103 266.549 265.167 266.208 265.295 265.824C265.423 265.44 265.551 265.099 265.679 264.8C266.106 263.691 266.554 262.56 267.023 261.408C267.492 260.256 267.983 259.083 268.495 257.888C267.94 258.528 267.407 259.125 266.895 259.68C266.426 260.192 266.084 260.576 265.871 260.832C265.743 261.003 265.636 261.088 265.551 261.088C265.466 261.088 265.423 260.981 265.423 260.768C265.423 260.427 265.53 260.107 265.743 259.808C266.34 259.04 267.023 258.229 267.791 257.376C268.559 256.523 269.306 255.627 270.031 254.688C271.823 250.933 273.828 247.307 276.047 243.808C278.266 240.267 280.762 237.131 283.535 234.4C284.388 233.589 285.348 232.757 286.415 231.904C287.482 231.051 288.612 230.325 289.807 229.728C291.044 229.131 292.26 228.832 293.455 228.832C294.095 228.832 294.671 229.003 295.183 229.344C295.738 229.685 296.036 230.219 296.079 230.944V232.8C296.079 232.971 295.951 233.056 295.695 233.056C295.567 233.056 295.503 233.013 295.503 232.928C295.503 232.245 295.204 231.797 294.607 231.584C294.01 231.328 293.412 231.2 292.815 231.2C290.468 231.2 288.356 231.819 286.479 233.056C284.602 234.251 282.938 235.829 281.487 237.792C280.036 239.712 278.735 241.845 277.583 244.192C276.431 246.496 275.386 248.779 274.447 251.04C273.551 253.259 272.698 255.243 271.887 256.992C271.887 256.992 271.887 257.035 271.887 257.12C271.887 257.205 271.908 257.248 271.951 257.248C271.994 257.248 272.335 256.928 272.975 256.288C273.658 255.605 274.49 254.816 275.471 253.92C276.495 253.024 277.562 252.256 278.671 251.616C279.78 250.933 280.804 250.592 281.743 250.592C282.212 250.592 282.511 250.763 282.639 251.104C282.767 251.403 282.831 251.744 282.831 252.128V252.704C282.618 254.283 282.063 255.989 281.167 257.824C280.314 259.659 279.204 261.408 277.839 263.072C276.516 264.693 275.023 266.016 273.359 267.04C271.738 268.064 270.031 268.576 268.239 268.576ZM269.263 267.488C269.946 267.488 270.671 267.232 271.439 266.72C272.25 266.165 272.868 265.675 273.295 265.248C273.807 264.779 274.426 264.053 275.151 263.072C275.876 262.048 276.58 260.939 277.263 259.744C277.946 258.549 278.522 257.397 278.991 256.288C279.46 255.179 279.695 254.283 279.695 253.6C279.695 253.387 279.652 253.195 279.567 253.024C279.482 252.853 279.332 252.768 279.119 252.768C278.735 252.768 278.223 253.003 277.583 253.472C276.986 253.941 276.324 254.517 275.599 255.2C274.916 255.84 274.276 256.48 273.679 257.12C273.124 257.717 272.719 258.165 272.463 258.464C271.994 258.976 271.396 259.723 270.671 260.704C269.946 261.685 269.284 262.688 268.687 263.712C268.132 264.693 267.855 265.525 267.855 266.208C267.855 267.061 268.324 267.488 269.263 267.488Z" fill="#3C57AE"/>
</svg>
