<svg width="183" height="43" viewBox="0 0 183 43" fill="none" xmlns="http://www.w3.org/2000/svg">
<path d="M41.5948 15.8933C41.7172 15.7709 41.7172 15.5724 41.5948 15.45L39.6001 13.4553C39.4777 13.3329 39.2792 13.3329 39.1568 13.4553C39.0344 13.5777 39.0344 13.7762 39.1568 13.8986L40.9299 15.6716L39.1568 17.4447C39.0344 17.5671 39.0344 17.7655 39.1568 17.8879C39.2792 18.0103 39.4777 18.0103 39.6001 17.8879L41.5948 15.8933ZM25.9104 15.9851H41.3731V15.3582H25.9104V15.9851Z" fill="#9BD4F7"/>
<path d="M14.4052 26.9426C14.2828 27.065 14.2828 27.2634 14.4052 27.3858L16.3999 29.3805C16.5223 29.5029 16.7208 29.5029 16.8432 29.3805C16.9656 29.2581 16.9656 29.0596 16.8432 28.9372L15.0701 27.1642L16.8432 25.3911C16.9656 25.2687 16.9656 25.0703 16.8432 24.9479C16.7208 24.8255 16.5223 24.8255 16.3999 24.9479L14.4052 26.9426ZM29.2537 26.8508L14.6269 26.8508L14.6269 27.4776L29.2537 27.4776L29.2537 26.8508Z" fill="#9BD4F7"/>
<rect width="17.9701" height="29.2537" fill="#DEE5FB"/>
<line x1="3.13433" y1="4.49257" x2="14.6269" y2="4.49257" stroke="#132A55" stroke-width="0.208955"/>
<line x1="3.13433" y1="9.71645" x2="14.6269" y2="9.71644" stroke="#132A55" stroke-width="0.208955"/>
<line x1="3.13433" y1="14.9403" x2="14.6269" y2="14.9403" stroke="#132A55" stroke-width="0.208955"/>
<line x1="3.13433" y1="20.1642" x2="14.6269" y2="20.1642" stroke="#132A55" stroke-width="0.208955"/>
<line x1="3.13433" y1="25.3881" x2="14.6269" y2="25.3881" stroke="#132A55" stroke-width="0.208955"/>
<rect x="38.0298" y="13.582" width="17.9701" height="29.2537" fill="#DEE5FB"/>
<line x1="41.1642" y1="18.0746" x2="52.6567" y2="18.0746" stroke="#132A55" stroke-width="0.208955"/>
<line x1="41.1642" y1="23.2985" x2="52.6567" y2="23.2985" stroke="#132A55" stroke-width="0.208955"/>
<line x1="41.1642" y1="28.5224" x2="52.6567" y2="28.5224" stroke="#132A55" stroke-width="0.208955"/>
<line x1="41.1642" y1="33.7462" x2="52.6567" y2="33.7462" stroke="#132A55" stroke-width="0.208955"/>
<line x1="41.1642" y1="38.9701" x2="52.6567" y2="38.9701" stroke="#132A55" stroke-width="0.208955"/>
<path d="M10.7441 33.7476C10.6872 33.757 10.6487 33.8108 10.6581 33.8678L10.8115 34.7955C10.8209 34.8524 10.8747 34.8909 10.9316 34.8815C10.9886 34.8721 11.0271 34.8183 11.0177 34.7614L10.8813 33.9367L11.7059 33.8004C11.7629 33.791 11.8014 33.7372 11.792 33.6803C11.7826 33.6233 11.7288 33.5848 11.6718 33.5942L10.7441 33.7476ZM32.2836 39.388L31.2446 38.7749L31.2331 39.9812L32.2836 39.388ZM10.7004 33.9356C13.2218 35.7415 20.7797 39.282 31.3407 39.4835L31.3446 39.2746C20.8234 39.0738 13.3071 35.5456 10.822 33.7658L10.7004 33.9356Z" fill="#A6C9EC"/>
<path d="M42.8529 8.35686C42.9098 8.34745 42.9483 8.29367 42.9389 8.23674L42.7855 7.30904C42.7761 7.25211 42.7223 7.21359 42.6654 7.223C42.6084 7.23242 42.5699 7.2862 42.5793 7.34313L42.7157 8.16775L41.8911 8.30411C41.8341 8.31352 41.7956 8.3673 41.805 8.42423C41.8144 8.48116 41.8682 8.51967 41.9252 8.51026L42.8529 8.35686ZM21.3134 2.71647L22.3524 3.3296L22.3639 2.12325L21.3134 2.71647ZM42.8967 8.16884C40.3752 6.36295 32.8173 2.82249 22.2563 2.62098L22.2524 2.8299C32.7736 3.03065 40.2899 6.55888 42.775 8.33872L42.8967 8.16884Z" fill="#A6C9EC"/>
<path d="M66.2537 25.4821C66.2199 25.4821 66.1607 25.4651 66.0761 25.4313C65.9915 25.4144 65.9493 25.3806 65.9493 25.3298C65.9493 25.3129 65.9577 25.296 65.9746 25.2791C65.9915 25.2622 66 25.2537 66 25.2537C66.1184 25.2199 66.1691 25.203 66.1522 25.203C66.1522 25.2199 66.2114 25.2114 66.3298 25.1776C66.6174 25.0761 66.8626 24.9323 67.0656 24.7463C67.2855 24.5433 67.4715 24.3065 67.6238 24.0359C68.4187 22.7166 69.1799 21.3803 69.9072 20.0272C70.6345 18.6571 71.3618 17.2955 72.0891 15.9424C72.2921 15.5872 72.4866 15.2235 72.6727 14.8514C72.8587 14.4793 73.0448 14.1072 73.2309 13.7351C73.3154 13.5321 73.4 13.3291 73.4846 13.1262C73.5861 12.9232 73.696 12.7287 73.8144 12.5426C73.9497 12.3058 74.1611 12.1029 74.4487 11.9337C74.7531 11.7477 75.0407 11.6123 75.3113 11.5278H74.7024C74.3641 11.5278 73.899 11.5531 73.307 11.6039C72.7319 11.6377 72.123 11.7054 71.4802 11.8069C70.8375 11.9083 70.2624 12.0606 69.755 12.2635C69.2645 12.4665 68.9262 12.7371 68.7401 13.0754C68.571 13.3799 68.4864 13.6759 68.4864 13.9634C68.4864 14.3017 68.5625 14.5301 68.7147 14.6485C68.867 14.7669 68.9431 14.843 68.9431 14.8768C68.9431 14.9106 68.9177 14.9445 68.867 14.9783C68.8162 15.0121 68.7739 15.029 68.7401 15.029C68.6386 15.029 68.5118 14.9275 68.3595 14.7246C68.2073 14.5216 68.0635 14.3017 67.9282 14.0649C67.8098 13.8112 67.7337 13.6421 67.6999 13.5575C67.6491 13.3714 67.6238 13.1854 67.6238 12.9993C67.6238 12.5426 67.776 12.1959 68.0805 11.9591C68.4018 11.7054 68.7909 11.5278 69.2475 11.4263C69.7042 11.3248 70.1609 11.2656 70.6176 11.2487C71.0912 11.2149 71.4802 11.1979 71.7847 11.1979C72.6304 11.1979 73.4761 11.181 74.3218 11.1472C75.1675 11.0965 76.0048 11.0711 76.8336 11.0711C77.6286 11.0711 78.4066 11.1303 79.1678 11.2487C79.9458 11.3502 80.6478 11.5616 81.2736 11.883C81.8994 12.2043 82.3984 12.661 82.7705 13.253C83.1595 13.845 83.3541 14.6231 83.3541 15.5872C83.3541 16.4667 83.1849 17.3717 82.8466 18.3019C82.5253 19.2153 82.1193 20.0357 81.6288 20.763C79.5653 23.8583 76.6729 25.4059 72.9518 25.4059C72.3767 25.4059 71.7847 25.3467 71.1758 25.2283C70.5838 25.1099 70.0256 24.9154 69.5013 24.6448C69.3829 24.5771 69.256 24.5264 69.1207 24.4926C69.0023 24.4418 68.8754 24.4165 68.7401 24.4165C68.4526 24.4165 68.165 24.5095 67.8775 24.6955C67.5899 24.8647 67.3109 25.0338 67.0402 25.203C66.7696 25.389 66.5074 25.4821 66.2537 25.4821ZM72.6473 25.0507C73.9159 25.0507 75.0999 24.8055 76.1993 24.315C77.2987 23.8245 78.2629 23.1394 79.0917 22.2599C79.9205 21.3634 80.5717 20.3401 81.0453 19.1899C81.2651 18.6487 81.4427 18.0821 81.5781 17.4901C81.7303 16.8981 81.8064 16.3145 81.8064 15.7394C81.8064 14.4201 81.4005 13.4053 80.5886 12.6949C79.7936 11.9675 78.7449 11.6039 77.4425 11.6039C77.1211 11.6039 76.7829 11.6377 76.4277 11.7054C76.0894 11.773 75.8103 11.9337 75.5904 12.1874C75.3705 12.4581 75.1591 12.7541 74.9561 13.0754C74.7701 13.3968 74.584 13.7097 74.3979 14.0142C74.0089 14.6907 73.6368 15.3927 73.2816 16.12C72.9433 16.8304 72.5966 17.5323 72.2414 18.2258C71.6832 19.2914 71.1335 20.3655 70.5922 21.448C70.4738 21.6848 70.347 21.9301 70.2117 22.1838C70.0933 22.4206 69.9749 22.6574 69.8565 22.8942C69.8226 22.9787 69.7888 23.0718 69.755 23.1733C69.7211 23.2578 69.7042 23.3593 69.7042 23.4777C69.7042 23.6976 69.7719 23.8837 69.9072 24.0359C70.0425 24.1881 70.1863 24.3319 70.3385 24.4672C70.6599 24.704 71.032 24.8647 71.4549 24.9493C71.8777 25.0169 72.2752 25.0507 72.6473 25.0507ZM83.1505 25.0507C82.8799 25.0507 82.6346 25 82.4147 24.8985C82.2117 24.7801 82.1103 24.5349 82.1103 24.1627C82.1103 23.5707 82.2625 22.9787 82.5669 22.3867C82.8714 21.7778 83.1843 21.245 83.5057 20.7883C83.7932 20.3993 84.1146 20.0357 84.4698 19.6974C84.8419 19.3422 85.2394 19.0377 85.6623 18.784C85.9329 18.6149 86.2965 18.4373 86.7532 18.2512C87.2268 18.0482 87.6243 17.9467 87.9457 17.9467C88.2163 17.9467 88.4531 18.0229 88.6561 18.1751C88.8591 18.3104 88.9605 18.5641 88.9605 18.9362C88.9605 19.5113 88.8083 20.1033 88.5039 20.7122C88.2163 21.3042 87.9119 21.8286 87.5905 22.2853C87.4383 22.4882 87.286 22.6827 87.1338 22.8688C86.9816 23.0379 86.8124 23.2155 86.6264 23.4016C87.2522 23.4016 87.8273 23.224 88.3516 22.8688C88.876 22.4967 89.3327 22.0485 89.7217 21.5241L89.7724 21.4734C89.8232 21.4734 89.8485 21.5241 89.8485 21.6256C89.8485 21.744 89.8147 21.8539 89.7471 21.9554C89.4088 22.429 88.9859 22.8519 88.4785 23.224C87.9711 23.5792 87.396 23.7568 86.7532 23.7568C86.6856 23.7568 86.6179 23.7568 86.5503 23.7568C86.4826 23.7568 86.4149 23.7483 86.3473 23.7314C85.4001 24.611 84.3345 25.0507 83.1505 25.0507ZM83.8101 24.6194C84.0469 24.6194 84.3007 24.5349 84.5713 24.3657C84.8588 24.1966 85.0787 24.0359 85.2309 23.8837C85.5185 23.5961 85.7807 23.2917 86.0175 22.9703C86.2543 22.632 86.4741 22.2937 86.6771 21.9554C86.9139 21.5495 87.1507 21.0674 87.3875 20.5093C87.6243 19.9511 87.7427 19.4267 87.7427 18.9362C87.7427 18.5472 87.6074 18.3527 87.3368 18.3527C87.1169 18.3527 86.8463 18.4457 86.5249 18.6318C86.2204 18.8178 85.9921 18.987 85.8399 19.1392C85.2648 19.7312 84.7827 20.3739 84.3937 21.0674C84.1738 21.4565 83.937 21.9131 83.6833 22.4375C83.4296 22.9618 83.3027 23.4439 83.3027 23.8837C83.3027 23.9513 83.3027 24.019 83.3027 24.0866C83.3196 24.1374 83.3365 24.1966 83.3535 24.2642C83.4211 24.501 83.5733 24.6194 83.8101 24.6194ZM90.5247 25.203C89.8988 25.203 89.4591 25.0846 89.2053 24.8478C88.9516 24.611 88.8248 24.3065 88.8248 23.9344C88.8248 23.4439 88.9855 22.9026 89.3068 22.3106C89.6282 21.7017 89.9327 21.1943 90.2202 20.7883C90.5077 20.3993 90.8291 20.0357 91.1843 19.6974C91.5564 19.3422 91.9539 19.0377 92.3768 18.784C92.6474 18.6149 93.0111 18.4373 93.4677 18.2512C93.9413 18.0482 94.3388 17.9467 94.6602 17.9467C95.0492 17.9467 95.3199 18.0398 95.4721 18.2258C95.6243 18.395 95.7004 18.6064 95.7004 18.8601C95.7004 19.0631 95.6666 19.2745 95.5989 19.4944C95.5313 19.6974 95.4552 19.8919 95.3706 20.0779C95.3199 20.1794 95.2437 20.2555 95.1423 20.3063C95.0408 20.3401 94.99 20.3232 94.99 20.2555C94.99 20.171 94.9985 20.0949 95.0154 20.0272C95.0323 19.9595 95.0408 19.8834 95.0408 19.7989C95.0408 19.4775 94.9647 19.1646 94.8124 18.8601C94.6771 18.5387 94.4657 18.3781 94.1781 18.3781C93.8737 18.3781 93.5439 18.488 93.1887 18.7079C92.8335 18.9109 92.5882 19.0885 92.4529 19.2407C92.0131 19.6974 91.5818 20.264 91.1589 20.9406C90.753 21.6171 90.457 22.2599 90.2709 22.8688C90.1525 23.224 90.0933 23.5285 90.0933 23.7822C90.0933 24.0697 90.1695 24.2727 90.3217 24.3911C90.4739 24.5095 90.66 24.5687 90.8799 24.5687C91.049 24.5687 91.2266 24.5433 91.4127 24.4926C91.6156 24.4418 91.8271 24.3826 92.0469 24.315C92.5544 24.1458 93.0618 23.8837 93.5692 23.5285C94.0936 23.1563 94.5672 22.7673 94.99 22.3614C95.4129 21.9385 95.7343 21.5749 95.9541 21.2704C95.988 21.3042 96.0049 21.355 96.0049 21.4226C96.0049 21.5072 95.9711 21.6087 95.9034 21.7271C95.8357 21.8286 95.785 21.9131 95.7512 21.9808C95.396 22.4544 94.9308 22.9449 94.3557 23.4523C93.7807 23.9429 93.1548 24.3573 92.4783 24.6955C91.8186 25.0338 91.1674 25.203 90.5247 25.203ZM96.9254 25.0761C96.7562 25.0761 96.6125 25.0423 96.4941 24.9746C96.3757 24.907 96.3165 24.7801 96.3165 24.5941C96.3165 24.3573 96.3757 24.0782 96.4941 23.7568C96.6294 23.4354 96.7732 23.1141 96.9254 22.7927C97.0776 22.4713 97.2045 22.2091 97.306 22.0062C97.5089 21.6171 97.7034 21.2281 97.8895 20.8391C98.0756 20.4501 98.2363 20.1202 98.3716 19.8496C98.5069 19.5959 98.5745 19.4267 98.5745 19.3422C98.5745 19.2069 98.473 19.2069 98.2701 19.3422C98.084 19.4775 97.9064 19.6128 97.7373 19.7481C97.3652 20.1033 96.9761 20.5262 96.5702 21.0167C96.1642 21.4903 95.8513 21.8709 95.6314 22.1584C95.5807 22.2261 95.5384 22.2599 95.5046 22.2599C95.4708 22.2599 95.4538 22.2176 95.4538 22.133C95.4538 21.9977 95.4961 21.8709 95.5807 21.7525C95.8175 21.4142 96.0966 21.0421 96.418 20.6361C96.7393 20.2302 97.0692 19.8411 97.4074 19.469C97.7288 19.1307 98.0586 18.8009 98.3969 18.4795C98.7352 18.1582 99.1665 17.9975 99.6909 17.9975C100.046 17.9975 100.224 18.1328 100.224 18.4034C100.224 18.6402 100.122 18.9109 99.9192 19.2153C99.8008 19.4014 99.6148 19.7143 99.361 20.1541C99.1073 20.5938 98.8452 21.0759 98.5745 21.6002C98.3208 22.1077 98.1009 22.5813 97.9149 23.021C97.7288 23.4608 97.6358 23.7822 97.6358 23.9851C97.6358 24.2219 97.7542 24.3403 97.991 24.3403C98.177 24.3403 98.4054 24.2473 98.676 24.0613C98.9467 23.8583 99.2257 23.6215 99.5133 23.3509C100.038 22.8434 100.511 22.2937 100.934 21.7017C101.374 21.0928 101.746 20.5093 102.05 19.9511C102.372 19.3929 102.626 18.9362 102.812 18.581C102.845 18.5134 102.879 18.4373 102.913 18.3527C102.964 18.2512 103.04 18.192 103.141 18.1751C103.243 18.1582 103.463 18.1497 103.801 18.1497C104.139 18.1497 104.452 18.0821 104.74 17.9467H104.791C104.841 17.9467 104.867 17.9721 104.867 18.0229C104.867 18.1582 104.757 18.2597 104.537 18.3273C104.334 18.395 104.097 18.5979 103.826 18.9362C103.573 19.2745 103.319 19.6889 103.065 20.1794C102.812 20.653 102.583 21.1435 102.38 21.651C102.177 22.1584 102.025 22.6235 101.924 23.0464C101.822 23.4693 101.797 23.7822 101.847 23.9851C101.915 24.2219 102.034 24.3403 102.203 24.3403C102.423 24.3403 102.727 24.205 103.116 23.9344C103.522 23.6638 103.936 23.3424 104.359 22.9703C104.782 22.5813 105.129 22.2261 105.399 21.9047C105.518 21.7694 105.628 21.6341 105.729 21.4987C105.831 21.3634 105.898 21.2789 105.932 21.245C105.949 21.2619 105.966 21.2958 105.983 21.3465C106 21.3803 106.008 21.4142 106.008 21.448C105.991 21.5664 105.949 21.6848 105.882 21.8032C105.814 21.9047 105.738 21.9977 105.653 22.0823C105.332 22.5051 104.943 22.9534 104.486 23.427C104.046 23.8837 103.564 24.2727 103.04 24.5941C102.532 24.9154 102.008 25.0761 101.467 25.0761C101.298 25.0761 101.103 25.0338 100.883 24.9493C100.68 24.8647 100.579 24.6786 100.579 24.3911C100.579 24.1712 100.638 23.8752 100.756 23.5031C100.875 23.1141 101.002 22.7335 101.137 22.3614C101.289 21.9723 101.416 21.6848 101.518 21.4987C101.298 21.8201 101.027 22.1838 100.706 22.5897C100.401 22.9787 100.088 23.3255 99.767 23.6299C99.3441 24.0359 98.8874 24.3826 98.3969 24.6702C97.9233 24.9408 97.4328 25.0761 96.9254 25.0761ZM105.617 25.3806C105.549 25.3806 105.549 25.3045 105.617 25.1522C105.702 25 105.778 24.8309 105.845 24.6448C105.93 24.4587 106.015 24.2558 106.099 24.0359C106.268 23.6299 106.454 23.1733 106.657 22.6658C106.86 22.1584 107.055 21.6679 107.241 21.1943C107.427 20.7038 107.588 20.2894 107.723 19.9511C107.875 19.5959 107.977 19.3675 108.027 19.2661C107.791 19.5198 107.503 19.8411 107.165 20.2302C106.843 20.6023 106.539 20.9659 106.251 21.3211C105.964 21.6763 105.744 21.9554 105.592 22.1584C105.541 22.2261 105.499 22.2599 105.465 22.2599C105.431 22.2599 105.414 22.2176 105.414 22.133C105.414 21.9977 105.456 21.8709 105.541 21.7525C105.862 21.3465 106.218 20.8898 106.607 20.3824C107.013 19.875 107.376 19.4098 107.698 18.987C108.019 18.5472 108.222 18.2597 108.306 18.1243C108.493 18.0905 108.763 18.0398 109.118 17.9721C109.49 17.9045 109.744 17.8114 109.879 17.693C109.93 17.6423 109.981 17.6169 110.032 17.6169C110.066 17.6169 110.082 17.6507 110.082 17.7184C110.099 17.7691 110.082 17.8283 110.032 17.896C109.93 18.0144 109.753 18.2935 109.499 18.7333C109.262 19.1561 109 19.6297 108.712 20.1541C108.442 20.6784 108.188 21.152 107.951 21.5749C108.222 21.2535 108.484 20.949 108.738 20.6615C109.008 20.3739 109.194 20.171 109.296 20.0526C109.499 19.8496 109.778 19.5959 110.133 19.2914C110.488 18.987 110.861 18.7079 111.25 18.4542C111.639 18.2005 111.977 18.0567 112.264 18.0229C112.332 18.0059 112.391 17.9975 112.442 17.9975C112.493 17.9975 112.543 17.9975 112.594 17.9975C112.916 17.9975 113.076 18.1159 113.076 18.3527C113.076 18.4542 113.051 18.5726 113 18.7079C112.949 18.8432 112.882 18.9785 112.797 19.1138C112.696 19.3168 112.527 19.6382 112.29 20.0779C112.053 20.5008 111.842 20.8898 111.655 21.245L112.848 20.0526C113.051 19.8496 113.33 19.5959 113.685 19.2914C114.04 18.987 114.413 18.7079 114.802 18.4542C115.191 18.2005 115.529 18.0567 115.816 18.0229C115.884 18.0059 115.943 17.9975 115.994 17.9975C116.062 17.9975 116.112 17.9975 116.146 17.9975C116.518 17.9975 116.704 18.1328 116.704 18.4034C116.704 18.6064 116.594 18.877 116.375 19.2153C116.256 19.4014 116.07 19.7143 115.816 20.1541C115.563 20.5938 115.301 21.0759 115.03 21.6002C114.776 22.1077 114.556 22.5813 114.37 23.021C114.184 23.4608 114.091 23.7822 114.091 23.9851C114.091 24.2219 114.21 24.3403 114.446 24.3403C114.666 24.3403 114.945 24.2135 115.284 23.9598C115.639 23.6891 115.994 23.3678 116.349 22.9957C116.721 22.6235 117.043 22.2683 117.313 21.9301C117.432 21.7947 117.542 21.6594 117.643 21.5241C117.762 21.3719 117.829 21.2873 117.846 21.2704C117.88 21.3042 117.897 21.3634 117.897 21.448C117.897 21.5664 117.855 21.6848 117.77 21.8032C117.702 21.9047 117.635 21.9977 117.567 22.0823C117.246 22.5051 116.874 22.9449 116.451 23.4016C116.045 23.8583 115.597 24.2473 115.106 24.5687C114.615 24.8731 114.091 25.0507 113.533 25.1015C113.364 25.1184 113.195 25.0846 113.026 25C112.856 24.9154 112.772 24.7801 112.772 24.5941C112.772 24.3573 112.831 24.0782 112.949 23.7568C113.085 23.4354 113.229 23.1141 113.381 22.7927C113.55 22.4713 113.677 22.2091 113.761 22.0062C114.066 21.4142 114.345 20.856 114.599 20.3317C114.852 19.8073 115.03 19.4352 115.131 19.2153C115.182 19.1138 115.207 19.0293 115.207 18.9616C115.207 18.8432 115.114 18.8347 114.928 18.9362C114.742 19.0377 114.514 19.1899 114.243 19.3929C113.99 19.5959 113.753 19.7989 113.533 20.0018C113.313 20.1879 113.169 20.3147 113.102 20.3824C112.814 20.6699 112.467 21.059 112.061 21.5495C111.672 22.04 111.309 22.5559 110.97 23.0971C110.632 23.6215 110.395 24.112 110.26 24.5687C110.091 24.7209 109.93 24.797 109.778 24.797C109.66 24.797 109.558 24.7547 109.474 24.6702C109.406 24.5856 109.372 24.4841 109.372 24.3657C109.372 24.0274 109.474 23.6299 109.677 23.1733C109.896 22.6997 110.074 22.3106 110.209 22.0062C110.514 21.4142 110.793 20.856 111.047 20.3317C111.3 19.8073 111.478 19.4352 111.579 19.2153C111.63 19.1138 111.655 19.0293 111.655 18.9616C111.655 18.8432 111.562 18.8347 111.376 18.9362C111.19 19.0377 110.962 19.1899 110.691 19.3929C110.438 19.5959 110.201 19.7989 109.981 20.0018C109.761 20.1879 109.617 20.3147 109.55 20.3824C109.144 20.8053 108.763 21.2366 108.408 21.6763C108.07 22.1161 107.782 22.5897 107.545 23.0971C107.41 23.4016 107.266 23.7399 107.114 24.112C106.962 24.4841 106.835 24.797 106.733 25.0507C106.514 25.0677 106.294 25.1269 106.074 25.2283C105.854 25.3298 105.702 25.3806 105.617 25.3806ZM118.829 25.203C118.135 25.203 117.653 25.0677 117.382 24.797C117.112 24.5264 116.977 24.1966 116.977 23.8075C116.977 23.317 117.103 22.7927 117.357 22.2345C117.628 21.6763 117.881 21.2027 118.118 20.8137C118.389 20.4078 118.753 19.9849 119.209 19.5451C119.666 19.1054 120.165 18.7333 120.706 18.4288C121.247 18.1243 121.772 17.9721 122.279 17.9721C122.719 17.9721 123.023 18.0821 123.193 18.3019C123.362 18.5049 123.446 18.7502 123.446 19.0377C123.446 19.5621 123.286 19.9934 122.964 20.3317C122.66 20.6699 122.279 20.949 121.822 21.1689C121.366 21.3719 120.926 21.541 120.503 21.6763C120.249 21.744 119.953 21.8117 119.615 21.8793C119.277 21.947 118.956 21.9808 118.651 21.9808C118.533 22.2853 118.44 22.5813 118.372 22.8688C118.304 23.1563 118.27 23.4185 118.27 23.6553C118.27 23.9429 118.338 24.1797 118.473 24.3657C118.626 24.5518 118.871 24.6448 119.209 24.6448C119.345 24.6448 119.505 24.6279 119.691 24.5941C119.877 24.5602 120.08 24.5095 120.3 24.4418C120.808 24.2727 121.307 24.0021 121.797 23.6299C122.288 23.2578 122.736 22.8603 123.142 22.4375C123.565 21.9977 123.886 21.6341 124.106 21.3465C124.157 21.3973 124.182 21.4565 124.182 21.5241C124.182 21.6087 124.123 21.744 124.004 21.9301C123.666 22.4037 123.226 22.8942 122.685 23.4016C122.144 23.909 121.543 24.3403 120.884 24.6955C120.224 25.0338 119.539 25.203 118.829 25.203ZM118.854 21.4734C119.074 21.4903 119.319 21.4903 119.59 21.4734C119.877 21.4395 120.156 21.3803 120.427 21.2958C121.121 21.0928 121.62 20.7714 121.924 20.3317C122.245 19.875 122.406 19.469 122.406 19.1138C122.406 18.9109 122.364 18.7417 122.279 18.6064C122.195 18.4711 122.059 18.4034 121.873 18.4034C121.383 18.4034 120.943 18.5895 120.554 18.9616C120.165 19.3168 119.827 19.7312 119.539 20.2048C119.252 20.6784 119.023 21.1013 118.854 21.4734ZM123.853 25.3806C123.785 25.3806 123.785 25.3045 123.853 25.1522C123.937 25 124.013 24.8309 124.081 24.6448C124.166 24.4587 124.25 24.2558 124.335 24.0359C124.504 23.6299 124.69 23.1733 124.893 22.6658C125.096 22.1584 125.291 21.6679 125.477 21.1943C125.663 20.7038 125.823 20.2894 125.959 19.9511C126.111 19.5959 126.212 19.3675 126.263 19.2661C126.026 19.5198 125.739 19.8411 125.4 20.2302C125.079 20.6023 124.775 20.9659 124.487 21.3211C124.2 21.6763 123.98 21.9554 123.827 22.1584C123.777 22.2261 123.734 22.2599 123.701 22.2599C123.667 22.2599 123.65 22.2176 123.65 22.133C123.65 21.9977 123.692 21.8709 123.777 21.7525C124.098 21.3465 124.453 20.8898 124.842 20.3824C125.248 19.875 125.612 19.4098 125.933 18.987C126.255 18.5472 126.458 18.2597 126.542 18.1243C126.728 18.0905 126.999 18.0398 127.354 17.9721C127.726 17.9045 127.98 17.8114 128.115 17.693C128.166 17.6423 128.217 17.6169 128.267 17.6169C128.301 17.6169 128.318 17.6507 128.318 17.7184C128.335 17.7691 128.318 17.8283 128.267 17.896C128.166 18.0144 127.988 18.2935 127.735 18.7333C127.498 19.1561 127.236 19.6297 126.948 20.1541C126.677 20.6784 126.424 21.152 126.187 21.5749C126.39 21.3042 126.61 21.0421 126.847 20.7883C127.083 20.5346 127.312 20.2894 127.532 20.0526C127.735 19.8496 128.014 19.5959 128.369 19.2914C128.724 18.987 129.096 18.7079 129.485 18.4542C129.874 18.2005 130.213 18.0567 130.5 18.0229C130.568 18.0059 130.627 17.9975 130.678 17.9975C130.745 17.9975 130.796 17.9975 130.83 17.9975C131.202 17.9975 131.388 18.1328 131.388 18.4034C131.388 18.6064 131.278 18.877 131.058 19.2153C130.94 19.4014 130.754 19.7143 130.5 20.1541C130.263 20.5769 130.018 21.0421 129.764 21.5495C129.528 22.04 129.316 22.5051 129.13 22.9449C128.961 23.3678 128.876 23.6807 128.876 23.8837C128.876 24.1205 128.995 24.2389 129.232 24.2389C129.519 24.2389 129.832 24.0951 130.17 23.8075C130.525 23.52 130.906 23.1563 131.312 22.7166C131.718 22.2599 132.124 21.7778 132.53 21.2704C132.564 21.3042 132.581 21.3634 132.581 21.448C132.581 21.5664 132.538 21.6848 132.454 21.8032C132.386 21.9047 132.318 21.9977 132.251 22.0823C132.082 22.3022 131.853 22.5813 131.566 22.9195C131.295 23.2409 131.016 23.5623 130.728 23.8837C130.441 24.1881 130.179 24.4334 129.942 24.6194C129.773 24.7378 129.553 24.8647 129.282 25C129.012 25.1353 128.741 25.203 128.47 25.203C128.166 25.203 127.955 25.1269 127.836 24.9746C127.718 24.8055 127.659 24.6025 127.659 24.3657C127.659 24.0951 127.709 23.8075 127.811 23.5031C127.912 23.1986 128.022 22.9111 128.141 22.6405C128.276 22.3529 128.377 22.1415 128.445 22.0062C128.749 21.4142 129.029 20.856 129.282 20.3317C129.536 19.8073 129.714 19.4352 129.815 19.2153C129.866 19.1138 129.891 19.0293 129.891 18.9616C129.891 18.8432 129.798 18.8347 129.612 18.9362C129.426 19.0377 129.198 19.1899 128.927 19.3929C128.673 19.5959 128.437 19.7989 128.217 20.0018C127.997 20.1879 127.853 20.3147 127.785 20.3824C127.16 21.0421 126.61 21.7778 126.136 22.5897C125.68 23.3847 125.291 24.205 124.969 25.0507C124.749 25.0677 124.529 25.1269 124.309 25.2283C124.09 25.3298 123.937 25.3806 123.853 25.3806ZM133.09 25.0761C132.921 25.0761 132.777 25.0423 132.659 24.9746C132.54 24.907 132.481 24.7801 132.481 24.5941C132.481 24.3573 132.54 24.0782 132.659 23.7568C132.794 23.4354 132.938 23.1141 133.09 22.7927C133.242 22.4713 133.369 22.2091 133.471 22.0062C133.555 21.8539 133.665 21.6171 133.8 21.2958C133.953 20.9575 134.105 20.6107 134.257 20.2555C134.426 19.8834 134.562 19.5705 134.663 19.3168C134.781 19.0631 134.841 18.9362 134.841 18.9362C134.688 19.1054 134.485 19.3422 134.232 19.6466C133.995 19.9511 133.733 20.2725 133.445 20.6107C133.175 20.9321 132.921 21.2366 132.684 21.5241C132.464 21.8117 132.303 22.0231 132.202 22.1584C132.151 22.2261 132.109 22.2599 132.075 22.2599C132.041 22.2599 132.024 22.2176 132.024 22.133C132.024 21.9977 132.067 21.8709 132.151 21.7525C132.354 21.4987 132.599 21.1943 132.887 20.8391C133.175 20.467 133.462 20.0949 133.75 19.7227C134.054 19.3506 134.316 19.0208 134.536 18.7333C134.401 18.7333 134.223 18.7417 134.003 18.7586C133.8 18.7755 133.614 18.8009 133.445 18.8347C133.276 18.8517 133.183 18.8601 133.166 18.8601C133.082 18.8601 133.09 18.7925 133.191 18.6571C133.293 18.5218 133.428 18.3865 133.597 18.2512C133.767 18.1159 133.893 18.0482 133.978 18.0482C133.995 18.0482 134.13 18.0567 134.384 18.0736C134.638 18.0736 134.824 18.0736 134.942 18.0736C135.28 17.6169 135.61 17.0926 135.932 16.5006C136.27 15.9086 136.6 15.2574 136.921 14.547C137.056 14.5301 137.285 14.437 137.606 14.2679C137.944 14.0818 138.207 13.8958 138.393 13.7097C138.477 13.6251 138.545 13.5829 138.596 13.5829C138.697 13.5829 138.697 13.6505 138.596 13.7858C138.477 13.9211 138.274 14.2087 137.987 14.6485C137.699 15.0713 137.378 15.5872 137.023 16.1961C136.667 16.7881 136.329 17.4139 136.008 18.0736H138.063C138.249 18.0736 138.342 18.099 138.342 18.1497C138.342 18.2174 138.215 18.285 137.961 18.3527C137.674 18.4373 137.369 18.488 137.048 18.5049C136.743 18.5218 136.456 18.5557 136.185 18.6064C135.932 18.6571 135.746 18.7671 135.627 18.9362C135.526 19.0546 135.382 19.3083 135.196 19.6974C135.01 20.0864 134.807 20.5346 134.587 21.0421C134.384 21.5326 134.206 22.0315 134.054 22.539C133.902 23.0295 133.809 23.4439 133.775 23.7822V23.8837C133.775 24.019 133.817 24.1289 133.902 24.2135C133.986 24.2981 134.071 24.3403 134.156 24.3403C134.375 24.3403 134.655 24.205 134.993 23.9344C135.348 23.6638 135.712 23.3424 136.084 22.9703C136.456 22.5813 136.777 22.2261 137.048 21.9047C137.166 21.7694 137.268 21.6425 137.352 21.5241C137.454 21.4057 137.513 21.3296 137.53 21.2958C137.564 21.3634 137.581 21.4142 137.581 21.448C137.581 21.5495 137.547 21.6594 137.479 21.7778C137.429 21.8962 137.369 21.9977 137.302 22.0823C136.98 22.5051 136.591 22.9534 136.135 23.427C135.678 23.8837 135.187 24.2727 134.663 24.5941C134.156 24.9154 133.631 25.0761 133.09 25.0761ZM143.421 25.5074C142.897 25.5074 142.398 25.3552 141.924 25.0507C141.45 24.7463 141.095 24.2981 140.858 23.7061C140.774 23.4862 140.715 23.2494 140.681 22.9957C140.664 22.7419 140.655 22.4967 140.655 22.2599V21.9301C140.655 21.8117 140.664 21.7017 140.681 21.6002C140.715 21.4987 140.782 21.448 140.884 21.448C140.918 21.448 140.935 21.4649 140.935 21.4987C140.935 21.6002 140.926 21.7017 140.909 21.8032C140.909 21.9047 140.909 22.0062 140.909 22.1077C140.909 22.9026 141.104 23.5031 141.493 23.909C141.899 24.315 142.398 24.5179 142.99 24.5179C143.582 24.5179 144.157 24.3488 144.715 24.0105C145.273 23.6722 145.789 23.2409 146.263 22.7166C146.652 22.2937 147.032 21.744 147.404 21.0674C147.793 20.3909 148.191 19.6635 148.597 18.8855C148.055 18.9024 147.489 18.9278 146.897 18.9616C146.305 18.9785 145.764 19.0293 145.273 19.1138C145.121 19.1307 145.079 19.0885 145.146 18.987C145.214 18.8855 145.341 18.7586 145.527 18.6064C145.713 18.4542 145.907 18.3189 146.11 18.2005C146.33 18.0821 146.508 18.0144 146.643 17.9975C146.931 18.0144 147.286 18.0313 147.709 18.0482C148.148 18.0482 148.58 18.0567 149.003 18.0736C149.375 17.397 149.73 16.712 150.068 16.0185C150.423 15.3081 150.753 14.6485 151.058 14.0395C151.227 13.7013 151.447 13.363 151.717 13.0247C152.005 12.6695 152.318 12.3566 152.656 12.0859C153.011 11.8153 153.375 11.6462 153.747 11.5785C152.851 11.6123 151.92 11.6377 150.956 11.6546C150.009 11.6715 149.104 11.7984 148.241 12.0352C147.852 12.1367 147.506 12.272 147.201 12.4411C146.897 12.6103 146.677 12.8217 146.542 13.0754C146.406 13.3291 146.339 13.6082 146.339 13.9127C146.339 14.3355 146.457 14.64 146.694 14.8261C146.711 14.843 146.719 14.8599 146.719 14.8768C146.719 14.9106 146.685 14.9445 146.618 14.9783C146.567 15.0121 146.516 15.0206 146.465 15.0037C146.313 14.9191 146.127 14.7161 145.907 14.3947C145.687 14.0565 145.552 13.7774 145.501 13.5575C145.451 13.3545 145.425 13.1685 145.425 12.9993C145.425 12.5595 145.569 12.2213 145.857 11.9845C146.144 11.7307 146.508 11.5531 146.948 11.4517C147.387 11.3333 147.836 11.2656 148.292 11.2487C148.749 11.2149 149.155 11.1979 149.51 11.1979H152.326C152.969 11.1979 153.527 11.1979 154.001 11.1979C154.474 11.181 154.855 11.1472 155.143 11.0965C155.176 11.0965 155.202 11.0965 155.219 11.0965C155.236 11.0795 155.252 11.0711 155.269 11.0711C155.371 11.0711 155.422 11.1049 155.422 11.1726C155.422 11.2402 155.388 11.3079 155.32 11.3755C155.269 11.4263 155.227 11.4517 155.193 11.4517C154.669 11.5024 154.178 11.7307 153.722 12.1367C153.265 12.5426 152.851 13.067 152.479 13.7097C152.377 13.8958 152.191 14.2425 151.92 14.7499C151.65 15.2574 151.354 15.8155 151.032 16.4245C150.711 17.0334 150.415 17.6 150.144 18.1243C150.466 18.1413 150.728 18.1582 150.931 18.1751C151.151 18.1751 151.278 18.1751 151.311 18.1751H155.041C155.193 18.1751 155.472 18.1497 155.878 18.099C156.301 18.0482 156.623 17.9721 156.842 17.8706C157.299 16.9911 157.764 16.12 158.238 15.2574C158.711 14.3947 159.151 13.6251 159.557 12.9486C159.98 12.2551 160.31 11.7561 160.547 11.4517C160.834 11.3333 161.156 11.1895 161.511 11.0203C161.883 10.8512 162.247 10.699 162.602 10.5637C162.974 10.4283 163.304 10.3607 163.591 10.3607C163.676 10.3607 163.76 10.3861 163.845 10.4368C163.946 10.4875 163.997 10.5383 163.997 10.589C163.997 10.6736 163.828 10.7159 163.49 10.7159C163.321 10.7159 163.143 10.7497 162.957 10.8174C162.771 10.8681 162.534 11.0457 162.247 11.3502C162.01 11.587 161.697 11.9929 161.308 12.568C160.936 13.1262 160.53 13.7858 160.09 14.547C159.65 15.2912 159.202 16.0777 158.745 16.9065C158.305 17.7353 157.891 18.5472 157.502 19.3422C157.113 20.1202 156.783 20.8306 156.513 21.4734C156.242 22.0992 156.064 22.5813 155.98 22.9195C155.963 23.0379 155.937 23.1733 155.904 23.3255C155.887 23.4608 155.878 23.5961 155.878 23.7314C155.878 24.0021 155.946 24.2389 156.081 24.4418C156.217 24.6448 156.47 24.7463 156.842 24.7463C157.113 24.7463 157.384 24.6955 157.654 24.5941C157.942 24.4926 158.196 24.3826 158.415 24.2642C159.024 23.9259 159.574 23.4693 160.065 22.8942C160.555 22.3022 160.953 21.8032 161.257 21.3973C161.308 21.3296 161.342 21.2958 161.359 21.2958C161.409 21.2958 161.435 21.355 161.435 21.4734C161.435 21.5749 161.409 21.6679 161.359 21.7525C161.037 22.2091 160.614 22.7419 160.09 23.3509C159.566 23.9429 158.957 24.4334 158.263 24.8224C157.722 25.1099 157.105 25.2537 156.411 25.2537C155.887 25.2537 155.43 25.0677 155.041 24.6955C154.669 24.3065 154.483 23.8414 154.483 23.3001C154.483 23.0295 154.534 22.7589 154.635 22.4882C154.787 22.0992 155.033 21.541 155.371 20.8137C155.726 20.0864 156.124 19.283 156.563 18.4034C156.394 18.5557 156.2 18.691 155.98 18.8094C155.76 18.9278 155.548 18.9785 155.345 18.9616C154.821 18.9109 154.221 18.8855 153.544 18.8855C152.884 18.8686 152.03 18.8601 150.982 18.8601H149.764C149.29 19.8242 148.8 20.7714 148.292 21.7017C147.785 22.6151 147.26 23.3678 146.719 23.9598C146.296 24.4165 145.789 24.7886 145.197 25.0761C144.605 25.3637 144.013 25.5074 143.421 25.5074ZM162.336 25.0761C162.167 25.0761 162.023 25.0423 161.905 24.9746C161.786 24.907 161.727 24.7801 161.727 24.5941C161.727 24.3573 161.786 24.0782 161.905 23.7568C162.04 23.4354 162.184 23.1141 162.336 22.7927C162.488 22.4713 162.615 22.2091 162.717 22.0062C162.92 21.6171 163.114 21.2281 163.3 20.8391C163.486 20.4501 163.647 20.1202 163.782 19.8496C163.918 19.5959 163.985 19.4267 163.985 19.3422C163.985 19.2069 163.884 19.2069 163.681 19.3422C163.495 19.4775 163.317 19.6128 163.148 19.7481C162.776 20.1033 162.387 20.5262 161.981 21.0167C161.575 21.4903 161.262 21.8709 161.042 22.1584C160.991 22.2261 160.949 22.2599 160.915 22.2599C160.881 22.2599 160.865 22.2176 160.865 22.133C160.865 21.9977 160.907 21.8709 160.991 21.7525C161.228 21.4142 161.507 21.0421 161.829 20.6361C162.15 20.2302 162.48 19.8411 162.818 19.469C163.14 19.1307 163.469 18.8009 163.808 18.4795C164.146 18.1582 164.577 17.9975 165.102 17.9975C165.457 17.9975 165.634 18.1328 165.634 18.4034C165.634 18.6402 165.533 18.9109 165.33 19.2153C165.212 19.4014 165.025 19.7143 164.772 20.1541C164.518 20.5938 164.256 21.0759 163.985 21.6002C163.732 22.1077 163.512 22.5813 163.326 23.021C163.14 23.4608 163.047 23.7822 163.047 23.9851C163.047 24.2219 163.165 24.3403 163.402 24.3403C163.588 24.3403 163.816 24.2473 164.087 24.0613C164.357 23.8583 164.636 23.6215 164.924 23.3509C165.448 22.8434 165.922 22.2937 166.345 21.7017C166.785 21.0928 167.157 20.5093 167.461 19.9511C167.783 19.3929 168.036 18.9362 168.222 18.581C168.256 18.5134 168.29 18.4373 168.324 18.3527C168.375 18.2512 168.451 18.192 168.552 18.1751C168.654 18.1582 168.873 18.1497 169.212 18.1497C169.55 18.1497 169.863 18.0821 170.151 17.9467H170.201C170.252 17.9467 170.277 17.9721 170.277 18.0229C170.277 18.1582 170.167 18.2597 169.948 18.3273C169.745 18.395 169.508 18.5979 169.237 18.9362C168.983 19.2745 168.73 19.6889 168.476 20.1794C168.222 20.653 167.994 21.1435 167.791 21.651C167.588 22.1584 167.436 22.6235 167.334 23.0464C167.233 23.4693 167.207 23.7822 167.258 23.9851C167.326 24.2219 167.444 24.3403 167.613 24.3403C167.833 24.3403 168.138 24.205 168.527 23.9344C168.933 23.6638 169.347 23.3424 169.77 22.9703C170.193 22.5813 170.54 22.2261 170.81 21.9047C170.929 21.7694 171.039 21.6341 171.14 21.4987C171.241 21.3634 171.309 21.2789 171.343 21.245C171.36 21.2619 171.377 21.2958 171.394 21.3465C171.411 21.3803 171.419 21.4142 171.419 21.448C171.402 21.5664 171.36 21.6848 171.292 21.8032C171.225 21.9047 171.148 21.9977 171.064 22.0823C170.743 22.5051 170.353 22.9534 169.897 23.427C169.457 23.8837 168.975 24.2727 168.451 24.5941C167.943 24.9154 167.419 25.0761 166.878 25.0761C166.708 25.0761 166.514 25.0338 166.294 24.9493C166.091 24.8647 165.99 24.6786 165.99 24.3911C165.99 24.1712 166.049 23.8752 166.167 23.5031C166.286 23.1141 166.412 22.7335 166.548 22.3614C166.7 21.9723 166.827 21.6848 166.928 21.4987C166.708 21.8201 166.438 22.1838 166.116 22.5897C165.812 22.9787 165.499 23.3255 165.178 23.6299C164.755 24.0359 164.298 24.3826 163.808 24.6702C163.334 24.9408 162.844 25.0761 162.336 25.0761ZM171.941 25.2283C171.721 25.2283 171.459 25.1861 171.155 25.1015C170.85 25.0338 170.698 24.8478 170.698 24.5433C170.698 24.4249 170.723 24.2896 170.774 24.1374C170.825 23.9851 170.876 23.8498 170.926 23.7314C171.095 23.2917 171.273 22.8434 171.459 22.3867C171.645 21.9301 171.84 21.4649 172.043 20.9913C171.823 21.245 171.611 21.4818 171.408 21.7017C171.222 21.9047 171.087 22.0569 171.002 22.1584C170.952 22.2261 170.909 22.2599 170.876 22.2599C170.842 22.2599 170.825 22.2176 170.825 22.133C170.825 21.9977 170.867 21.8709 170.952 21.7525C171.188 21.448 171.459 21.1266 171.764 20.7883C172.068 20.4501 172.364 20.0949 172.652 19.7227C173.362 18.2343 174.157 16.7966 175.036 15.4096C175.916 14.0057 176.906 12.7625 178.005 11.68C178.343 11.3586 178.724 11.0288 179.147 10.6905C179.57 10.3522 180.018 10.0647 180.491 9.82788C180.982 9.59108 181.464 9.47268 181.938 9.47268C182.191 9.47268 182.42 9.54034 182.623 9.67566C182.842 9.81097 182.961 10.0224 182.978 10.3099V11.0457C182.978 11.1134 182.927 11.1472 182.826 11.1472C182.775 11.1472 182.749 11.1303 182.749 11.0965C182.749 10.8258 182.631 10.6482 182.394 10.5637C182.157 10.4622 181.921 10.4114 181.684 10.4114C180.754 10.4114 179.916 10.6567 179.172 11.1472C178.428 11.6208 177.768 12.2466 177.193 13.0247C176.618 13.7858 176.102 14.6315 175.645 15.5618C175.189 16.4752 174.774 17.3801 174.402 18.2766C174.047 19.1561 173.709 19.9426 173.387 20.6361C173.387 20.6361 173.387 20.653 173.387 20.6869C173.387 20.7207 173.396 20.7376 173.413 20.7376C173.43 20.7376 173.565 20.6107 173.819 20.357C174.089 20.0864 174.419 19.7735 174.808 19.4183C175.214 19.0631 175.637 18.7586 176.077 18.5049C176.516 18.2343 176.922 18.099 177.295 18.099C177.481 18.099 177.599 18.1666 177.65 18.3019C177.7 18.4203 177.726 18.5557 177.726 18.7079V18.9362C177.641 19.5621 177.421 20.2386 177.066 20.9659C176.728 21.6933 176.288 22.3867 175.747 23.0464C175.223 23.6891 174.631 24.2135 173.971 24.6194C173.328 25.0254 172.652 25.2283 171.941 25.2283ZM172.347 24.797C172.618 24.797 172.905 24.6955 173.21 24.4926C173.531 24.2727 173.776 24.0782 173.946 23.909C174.148 23.723 174.394 23.4354 174.681 23.0464C174.969 22.6405 175.248 22.2007 175.519 21.7271C175.789 21.2535 176.018 20.7968 176.204 20.357C176.39 19.9173 176.483 19.5621 176.483 19.2914C176.483 19.2069 176.466 19.1307 176.432 19.0631C176.398 18.9954 176.339 18.9616 176.254 18.9616C176.102 18.9616 175.899 19.0546 175.645 19.2407C175.409 19.4267 175.146 19.6551 174.859 19.9257C174.588 20.1794 174.335 20.4331 174.098 20.6869C173.878 20.9237 173.717 21.1013 173.616 21.2197C173.43 21.4226 173.193 21.7186 172.905 22.1077C172.618 22.4967 172.356 22.8942 172.119 23.3001C171.899 23.6891 171.789 24.019 171.789 24.2896C171.789 24.6279 171.975 24.797 172.347 24.797Z" fill="#3C57AE"/>
</svg>
