<svg width="268" height="205" viewBox="0 0 268 205" fill="none" xmlns="http://www.w3.org/2000/svg">
<path d="M199.061 76.0607C199.646 75.4749 199.646 74.5251 199.061 73.9393L189.515 64.3934C188.929 63.8076 187.979 63.8076 187.393 64.3934C186.808 64.9792 186.808 65.9289 187.393 66.5147L195.879 75L187.393 83.4853C186.808 84.0711 186.808 85.0208 187.393 85.6066C187.979 86.1924 188.929 86.1924 189.515 85.6066L199.061 76.0607ZM124 76.5H198V73.5H124V76.5Z" fill="#9BD4F7"/>
<path d="M68.9393 128.939C68.3536 129.525 68.3536 130.475 68.9393 131.061L78.4853 140.607C79.0711 141.192 80.0208 141.192 80.6066 140.607C81.1924 140.021 81.1924 139.071 80.6066 138.485L72.1213 130L80.6066 121.515C81.1924 120.929 81.1924 119.979 80.6066 119.393C80.0208 118.808 79.0711 118.808 78.4853 119.393L68.9393 128.939ZM140 128.5L70 128.5L70 131.5L140 131.5L140 128.5Z" fill="#9BD4F7"/>
<rect width="86" height="140" fill="#DEE5FB"/>
<line x1="15" y1="21.5" x2="70" y2="21.5" stroke="#132A55"/>
<line x1="15" y1="46.5" x2="70" y2="46.5" stroke="#132A55"/>
<line x1="15" y1="71.5" x2="70" y2="71.5" stroke="#132A55"/>
<line x1="15" y1="96.5" x2="70" y2="96.5" stroke="#132A55"/>
<line x1="15" y1="121.5" x2="70" y2="121.5" stroke="#132A55"/>
<rect x="182" y="65" width="86" height="140" fill="#DEE5FB"/>
<line x1="197" y1="86.5" x2="252" y2="86.5" stroke="#132A55"/>
<line x1="197" y1="111.5" x2="252" y2="111.5" stroke="#132A55"/>
<line x1="197" y1="136.5" x2="252" y2="136.5" stroke="#132A55"/>
<line x1="197" y1="161.5" x2="252" y2="161.5" stroke="#132A55"/>
<line x1="197" y1="186.5" x2="252" y2="186.5" stroke="#132A55"/>
<path d="M51.4184 161.507C51.146 161.552 50.9616 161.809 51.0067 162.082L51.7408 166.521C51.7859 166.794 52.0433 166.978 52.3157 166.933C52.5881 166.888 52.7725 166.631 52.7274 166.358L52.0749 162.412L56.0213 161.759C56.2937 161.714 56.4781 161.457 56.433 161.184C56.388 160.912 56.1306 160.728 55.8581 160.773L51.4184 161.507ZM154.5 188.5L149.528 185.566L149.473 191.339L154.5 188.5ZM51.2089 162.406C63.2757 171.049 99.4456 187.993 149.987 188.957L150.007 187.957C99.655 186.996 63.684 170.111 51.7911 161.594L51.2089 162.406Z" fill="black"/>
<path d="M205.082 39.9933C205.354 39.9483 205.538 39.6909 205.493 39.4184L204.759 34.9787C204.714 34.7063 204.457 34.5219 204.184 34.567C203.912 34.612 203.728 34.8694 203.773 35.1419L204.425 39.0883L200.479 39.7408C200.206 39.7859 200.022 40.0433 200.067 40.3157C200.112 40.5881 200.369 40.7725 200.642 40.7274L205.082 39.9933ZM102 13L106.972 15.9343L107.027 10.161L102 13ZM205.291 39.0935C193.224 30.451 157.054 13.5074 106.513 12.543L106.493 13.5428C156.845 14.5036 192.816 31.3887 204.709 39.9065L205.291 39.0935Z" fill="black"/>
</svg>
