<svg width="82" height="51" viewBox="0 0 82 51" fill="none" xmlns="http://www.w3.org/2000/svg">
<g filter="url(#filter0_d_343_137)">
<path d="M77.9999 15.5241C77.9999 23.5512 69.0457 30.0558 58.0037 30.0558C51.0168 30.0558 44.8664 27.448 41.3013 23.4985C42.9068 21.486 43.864 19.1646 43.962 16.6924C44.7458 21.1017 49.9239 24.5009 56.2023 24.5009C63.0159 24.5009 68.5407 20.4836 68.5407 15.5241C68.5407 10.5647 63.0159 6.5549 56.2023 6.5549C53.7377 6.5549 51.4464 7.07496 49.5244 7.97943C49.5244 7.97943 49.5169 7.98696 49.4943 7.9945C49.4867 7.9945 49.4716 8.00957 49.4566 8.01711C49.4415 8.02465 49.4264 8.03972 49.4038 8.04726C48.522 8.46181 47.723 8.9668 47.0221 9.53208C45.9066 10.2632 44.5423 11.1978 43.2007 12.2455C41.1581 13.8358 39.1759 15.6673 38.1885 17.3783C38.1508 17.22 38.1207 17.0617 38.1056 16.8959C38.0453 16.4437 38.0151 15.9914 38.0151 15.5241C38.0151 15.3583 38.0227 15.1925 38.0302 15.0342C38.1357 12.5696 39.0929 10.2707 40.6908 8.26584C44.1429 3.92442 50.6098 1 58.0037 1C69.0457 1 77.9999 7.50458 77.9999 15.5241Z" fill="url(#paint0_linear_343_137)" stroke="#747474" stroke-width="0.188429" stroke-miterlimit="10"/>
<path d="M49.4037 8.03973C49.0872 8.22816 48.1902 8.7633 47.022 9.52456C47.7229 8.95927 48.5219 8.45428 49.4037 8.03973Z" stroke="#747474" stroke-width="0.188429" stroke-miterlimit="10"/>
<path d="M68.5407 15.5241C68.5407 20.4836 63.0159 24.5009 56.2023 24.5009C49.9238 24.5009 44.7458 21.1017 43.9619 16.6924C43.977 16.5417 43.977 16.3909 43.977 16.2402C43.977 15.7879 43.9469 15.3432 43.8866 14.8986C43.8715 14.7252 43.8413 14.5518 43.8037 14.386C43.6831 13.6549 43.4796 12.9389 43.2007 12.2455C44.5423 11.1978 45.9065 10.2632 47.022 9.53209C48.1903 8.77083 49.0872 8.23569 49.4038 8.04726C49.4264 8.04726 49.4415 8.02465 49.4565 8.01711C49.4716 8.00958 49.4867 8.00204 49.4942 7.9945C49.5168 7.98696 49.5244 7.97943 49.5244 7.97943C51.4464 7.07497 53.7377 6.5549 56.2023 6.5549C63.0159 6.5549 68.5407 10.5722 68.5407 15.5241Z" stroke="#747474" stroke-width="0.188429" stroke-miterlimit="10"/>
<path d="M49.4037 8.03973C49.0872 8.22816 48.1902 8.7633 47.022 9.52456C47.7229 8.95927 48.5219 8.45428 49.4037 8.03973Z" stroke="#747474" stroke-width="0.188429" stroke-miterlimit="10"/>
<path d="M43.9772 16.2326C43.9772 16.3834 43.9772 16.5341 43.9621 16.6849C43.8641 19.1571 42.9069 21.4785 41.3015 23.4909C37.8495 27.8399 31.3901 30.7643 23.9886 30.7643C12.9466 30.7643 4 24.2522 4 16.2326C4 8.21308 12.9466 1.7085 23.9886 1.7085C30.9756 1.7085 37.1259 4.31636 40.691 8.26584C39.0931 10.2707 38.1359 12.5696 38.0304 15.0342C37.2239 10.6476 32.0458 7.2634 25.7975 7.2634C18.9764 7.2634 13.4516 11.2807 13.4516 16.2402C13.4516 21.1996 18.9764 25.2094 25.7975 25.2094C28.2622 25.2094 30.5535 24.6894 32.4755 23.7849C32.4755 23.7849 32.4905 23.7774 32.5207 23.7623C32.5508 23.7472 32.5885 23.7246 32.6413 23.6944C33.5156 23.2799 34.307 22.7749 35.0004 22.2172C35.008 22.2172 35.0079 22.2096 35.0155 22.2021C36.1234 21.486 37.4651 20.559 38.7841 19.5188C40.8266 17.936 42.8165 16.1045 43.8038 14.386C43.8415 14.5518 43.8717 14.7252 43.8867 14.8986C43.947 15.3432 43.9772 15.7879 43.9772 16.2402V16.2326Z" fill="url(#paint1_linear_343_137)" stroke="#747474" stroke-width="0.188429" stroke-miterlimit="10"/>
<path d="M35.0005 22.2172C34.3071 22.7749 33.5157 23.2799 32.6414 23.6944C32.9881 23.4834 33.8699 22.9558 35.0005 22.2172Z" stroke="#747474" stroke-width="0.188429" stroke-miterlimit="10"/>
<path d="M43.8039 14.386C42.8165 16.1045 40.8267 17.9361 38.7842 19.5189C38.5053 18.8254 38.3018 18.1094 38.1887 17.3783C39.1761 15.6674 41.1584 13.8358 43.2009 12.2455C43.4798 12.9389 43.6833 13.6549 43.8039 14.386Z" fill="#0A1214" stroke="#747474" stroke-width="0.188429" stroke-miterlimit="10"/>
<path d="M38.7841 19.5188C37.4651 20.559 36.1235 21.4861 35.0155 22.2021C35.008 22.2096 35.008 22.2172 35.0005 22.2172C33.8699 22.9558 32.988 23.4834 32.6413 23.6944C32.5886 23.7246 32.5509 23.7472 32.5207 23.7623C32.4906 23.7774 32.4755 23.7849 32.4755 23.7849C30.5535 24.6894 28.2622 25.2094 25.7976 25.2094C18.9764 25.2094 13.4517 21.1921 13.4517 16.2402C13.4517 11.2883 18.9764 7.2634 25.7976 7.2634C32.0459 7.2634 37.2239 10.6476 38.0304 15.0342C38.0229 15.1925 38.0153 15.3583 38.0153 15.5241C38.0153 15.9914 38.0455 16.4437 38.1058 16.8959C38.1208 17.0617 38.151 17.22 38.1887 17.3783C38.3017 18.1094 38.5052 18.8254 38.7841 19.5188Z" stroke="#747474" stroke-width="0.188429" stroke-miterlimit="10"/>
<path d="M35.0005 22.2172C34.3071 22.7749 33.5157 23.2799 32.6414 23.6944C32.9881 23.4834 33.8699 22.9558 35.0005 22.2172Z" stroke="#747474" stroke-width="0.188429" stroke-miterlimit="10"/>
<path d="M31.2469 39.4848C32.7544 39.4848 32.0006 41.746 33.5081 40.9923C34.2618 43.2534 32.0006 44.0071 30.4932 43.2534V41.746C30.4932 42.4997 30.4932 43.2534 31.2469 43.2534H32.7544V41.746C31.2469 40.9923 29.7395 39.4848 30.4932 37.9774H33.5081V39.4848C33.5081 38.7311 32.7544 37.9774 32.7544 37.9774H31.2469V39.4848Z" fill="black" stroke="#747474" stroke-width="0.188429" stroke-miterlimit="10"/>
<path d="M39.5377 37.9774C38.784 38.7311 38.0303 40.2386 37.2766 40.9923C38.784 41.746 35.7692 43.2534 38.0303 43.2534H35.7692C38.0303 43.2534 35.0154 41.746 36.5229 40.9923C35.7692 40.2386 35.0154 38.7311 34.2617 37.9774H36.5229H35.7692C35.7692 39.4848 36.5229 39.4848 37.2766 40.2386C37.2766 39.4848 38.0303 38.7311 38.784 37.9774H38.0303H39.5377Z" fill="black" stroke="#747474" stroke-width="0.188429" stroke-miterlimit="10"/>
<path d="M46.3212 37.9774C44.0601 39.4848 46.3212 41.746 45.5675 44.0071C44.0601 41.746 42.5527 40.2385 41.0452 38.7311C41.7989 40.2385 39.5378 41.746 41.7989 43.2534H40.2915C41.7989 41.746 41.0452 40.2385 41.0452 38.7311L40.2915 37.9774C43.3064 37.2237 43.3064 40.2385 45.5675 41.746C45.5675 40.2385 46.3212 38.7311 44.8138 37.9774H46.3212Z" fill="black"/>
<path d="M41.0452 38.7311C42.5527 40.2385 44.0601 41.746 45.5675 44.0071C46.3212 41.746 44.0601 39.4848 46.3212 37.9774H44.8138C46.3212 38.7311 45.5675 40.2385 45.5675 41.746C43.3064 40.2385 43.3064 37.2237 40.2915 37.9774L41.0452 38.7311ZM41.0452 38.7311C41.7989 40.2385 39.5378 41.746 41.7989 43.2534H40.2915C41.7989 41.746 41.0452 40.2385 41.0452 38.7311Z" stroke="#747474" stroke-width="0.188429" stroke-miterlimit="10"/>
<path d="M50.8435 37.9774C52.351 37.9774 52.351 38.7311 52.351 39.4848C50.8435 39.4848 51.5973 38.7311 50.8435 37.9774C49.3361 37.9774 47.8287 37.9774 47.8287 40.2386C47.8287 40.9923 48.5824 42.4997 49.3361 43.2534C50.0898 44.0071 51.5973 43.2534 52.351 41.746C52.351 42.4997 51.5973 43.2534 51.5973 43.2534C50.0898 43.2534 48.5824 44.0071 47.075 41.746V39.4848C47.8287 37.9774 49.3361 37.9774 50.8435 37.9774Z" fill="black"/>
<path d="M50.8435 37.9774C52.351 37.9774 52.351 38.7311 52.351 39.4848C50.8435 39.4848 51.5973 38.7311 50.8435 37.9774ZM50.8435 37.9774C49.3361 37.9774 47.8287 37.9774 47.8287 40.2386C47.8287 40.9923 48.5824 42.4997 49.3361 43.2534C50.0898 44.0071 51.5973 43.2534 52.351 41.746C52.351 42.4997 51.5973 43.2534 51.5973 43.2534C50.0898 43.2534 48.5824 44.0071 47.075 41.746V39.4848C47.8287 37.9774 49.3361 37.9774 50.8435 37.9774Z" stroke="#747474" stroke-width="0.188429" stroke-miterlimit="10"/>
</g>
<defs>
<filter id="filter0_d_343_137" x="0.890891" y="0.905792" width="80.218" height="49.3436" filterUnits="userSpaceOnUse" color-interpolation-filters="sRGB">
<feFlood flood-opacity="0" result="BackgroundImageFix"/>
<feColorMatrix in="SourceAlpha" type="matrix" values="0 0 0 0 0 0 0 0 0 0 0 0 0 0 0 0 0 0 127 0" result="hardAlpha"/>
<feOffset dy="3.01487"/>
<feGaussianBlur stdDeviation="1.50744"/>
<feComposite in2="hardAlpha" operator="out"/>
<feColorMatrix type="matrix" values="0 0 0 0 0 0 0 0 0 0 0 0 0 0 0 0 0 0 0.25 0"/>
<feBlend mode="normal" in2="BackgroundImageFix" result="effect1_dropShadow_343_137"/>
<feBlend mode="normal" in="SourceGraphic" in2="effect1_dropShadow_343_137" result="shape"/>
</filter>
<linearGradient id="paint0_linear_343_137" x1="45.997" y1="31.3899" x2="70.131" y2="-0.492356" gradientUnits="userSpaceOnUse">
<stop stop-color="#031A21"/>
<stop offset="0.97" stop-color="#0C3849"/>
</linearGradient>
<linearGradient id="paint1_linear_343_137" x1="4" y1="16.2402" x2="43.9772" y2="16.2402" gradientUnits="userSpaceOnUse">
<stop stop-color="#000006"/>
<stop offset="1" stop-color="#002C3C"/>
</linearGradient>
</defs>
</svg>
