<svg width="31" height="32" viewBox="0 0 31 32" fill="none" xmlns="http://www.w3.org/2000/svg">
<g clip-path="url(#clip0_81_28)">
<path d="M10.9057 1.71984C7.87751 2.77035 5.26599 4.76426 3.45475 7.40868C1.64351 10.0531 0.728013 13.2087 0.842734 16.4119C0.957456 19.615 2.09635 22.697 4.09212 25.2051C6.0879 27.7132 8.83536 29.5151 11.931 30.3463C14.4406 30.9939 17.07 31.0224 19.5931 30.4292C21.8788 29.9158 23.9919 28.8176 25.7257 27.2422C27.5301 25.5524 28.8399 23.4028 29.5141 21.0244C30.247 18.438 30.3774 15.718 29.8953 13.0734H15.8023V18.9194H23.964C23.8009 19.8518 23.4514 20.7417 22.9363 21.5359C22.4212 22.3301 21.7512 23.0121 20.9664 23.5413C19.9698 24.2006 18.8463 24.6442 17.6681 24.8436C16.4864 25.0633 15.2744 25.0633 14.0927 24.8436C12.8951 24.596 11.7621 24.1017 10.766 23.3922C9.16574 22.2594 7.96416 20.6501 7.33273 18.7939C6.69062 16.903 6.69062 14.853 7.33273 12.9621C7.78219 11.6366 8.52522 10.4298 9.50635 9.43171C10.6291 8.26853 12.0506 7.43708 13.6148 7.02859C15.179 6.6201 16.8255 6.65035 18.3737 7.11602C19.5831 7.48727 20.689 8.13591 21.6033 9.01025C22.5236 8.0947 23.4423 7.17679 24.3594 6.25652C24.833 5.76165 25.3492 5.29046 25.8156 4.78375C24.42 3.48497 22.7817 2.47435 20.9948 1.80982C17.7408 0.628273 14.1803 0.59652 10.9057 1.71984Z" fill="white"/>
<path d="M10.9057 1.7199C14.18 0.595808 17.7405 0.626725 20.9948 1.8075C22.7821 2.47655 24.4195 3.49203 25.8133 4.79565C25.3397 5.30235 24.8401 5.77591 24.3571 6.26841C23.4384 7.18553 22.5205 8.09949 21.6033 9.0103C20.689 8.13596 19.5831 7.48732 18.3737 7.11607C16.826 6.64877 15.1796 6.61677 13.615 7.02359C12.0503 7.43041 10.628 8.26033 9.50397 9.42229C8.52284 10.4204 7.77982 11.6272 7.33035 12.9527L2.42194 9.15236C4.17885 5.66832 7.22084 3.00329 10.9057 1.7199Z" fill="#E33629"/>
<path d="M1.11968 12.9169C1.3835 11.6094 1.8215 10.3432 2.42196 9.1521L7.33037 12.9619C6.68826 14.8528 6.68826 16.9028 7.33037 18.7937C5.69502 20.0565 4.05889 21.3257 2.42196 22.6011C0.918774 19.609 0.460329 16.1998 1.11968 12.9169Z" fill="#F8BD00"/>
<path d="M15.8023 13.0712H29.8953C30.3774 15.7158 30.247 18.4358 29.5141 21.0222C28.8399 23.4006 27.5301 25.5502 25.7257 27.24C24.1416 26.004 22.5505 24.7775 20.9664 23.5415C21.7518 23.0118 22.4221 22.3289 22.9372 21.5339C23.4522 20.7389 23.8015 19.8481 23.964 18.9149H15.8023C15.7999 16.9685 15.8023 15.0199 15.8023 13.0712Z" fill="#587DBD"/>
<path d="M2.41959 22.6015C4.05651 21.3386 5.69265 20.0695 7.328 18.7941C7.96069 20.6509 9.16399 22.2602 10.766 23.3923C11.7652 24.0985 12.9006 24.5888 14.0999 24.8319C15.2815 25.0516 16.4936 25.0516 17.6752 24.8319C18.8534 24.6325 19.9769 24.1889 20.9735 23.5296C22.5576 24.7656 24.1487 25.9921 25.7328 27.2281C23.9993 28.8044 21.8861 29.9034 19.6002 30.4175C17.0771 31.0107 14.4477 30.9822 11.9381 30.3346C9.95316 29.8047 8.09913 28.8704 6.49217 27.5904C4.7913 26.24 3.40211 24.5382 2.41959 22.6015Z" fill="#319F43"/>
</g>
<defs>
<clipPath id="clip0_81_28">
<rect width="30.3076" height="30.3076" fill="white" transform="translate(0.347778 0.7229)"/>
</clipPath>
</defs>
</svg>
